<?xml version="1.0" encoding="UTF-8" standalone="no"?>
<!-- Created with Inkscape (http://www.inkscape.org/) -->

<svg
   width="210mm"
   height="297mm"
   viewBox="0 0 210 297"
   version="1.1"
   id="svg5"
   xml:space="preserve"
   inkscape:version="1.2.2 (b0a8486541, 2022-12-01)"
   sodipodi:docname="little guy.svg"
   xmlns:inkscape="http://www.inkscape.org/namespaces/inkscape"
   xmlns:sodipodi="http://sodipodi.sourceforge.net/DTD/sodipodi-0.dtd"
   xmlns="http://www.w3.org/2000/svg"
   xmlns:svg="http://www.w3.org/2000/svg"><sodipodi:namedview
     id="namedview7"
     pagecolor="#ffffff"
     bordercolor="#000000"
     borderopacity="0.25"
     inkscape:showpageshadow="2"
     inkscape:pageopacity="0.0"
     inkscape:pagecheckerboard="0"
     inkscape:deskcolor="#d1d1d1"
     inkscape:document-units="mm"
     showgrid="false"
     inkscape:zoom="0.95038081"
     inkscape:cx="498.74744"
     inkscape:cy="287.25327"
     inkscape:window-width="1920"
     inkscape:window-height="1094"
     inkscape:window-x="-11"
     inkscape:window-y="-11"
     inkscape:window-maximized="1"
     inkscape:current-layer="layer1" /><defs
     id="defs2"><filter
       style="color-interpolation-filters:sRGB;"
       inkscape:menu-tooltip="Fades hue progressively to white"
       inkscape:menu="Color"
       inkscape:label="Invert"
       id="filter294"
       x="0"
       y="0"
       width="1"
       height="1"><feColorMatrix
         values="1 0 0 0 0 1 0 0 0 0 1 0 0 0 0 0 0 0 0 1 "
         type="matrix"
         result="r"
         in="SourceGraphic"
         id="feColorMatrix266" /><feColorMatrix
         values="0 1 0 0 0 0 1 0 0 0 0 1 0 0 0 0 0 0 0 1 "
         type="matrix"
         result="g"
         in="SourceGraphic"
         id="feColorMatrix268" /><feColorMatrix
         values="0 0 1 0 0 0 0 1 0 0 0 0 1 0 0 0 0 0 0 1 "
         type="matrix"
         result="b"
         in="SourceGraphic"
         id="feColorMatrix270" /><feBlend
         result="minrg"
         in="r"
         mode="darken"
         in2="g"
         id="feBlend272" /><feBlend
         result="p"
         in="minrg"
         mode="darken"
         in2="b"
         id="feBlend274" /><feBlend
         result="maxrg"
         in="r"
         mode="lighten"
         in2="g"
         id="feBlend276" /><feBlend
         result="q"
         in="maxrg"
         mode="lighten"
         in2="b"
         id="feBlend278" /><feComponentTransfer
         result="q2"
         in="q"
         id="feComponentTransfer282"><feFuncR
           slope="0"
           type="linear"
           id="feFuncR280" /></feComponentTransfer><feBlend
         result="pq"
         in="p"
         mode="lighten"
         in2="q2"
         id="feBlend284" /><feColorMatrix
         values="-1 1 0 0 0 -1 1 0 0 0 -1 1 0 0 0 0 0 0 0 1 "
         type="matrix"
         result="qminp"
         in="pq"
         id="feColorMatrix286" /><feComposite
         k3="1"
         operator="arithmetic"
         result="qminpc"
         in="qminp"
         in2="qminp"
         id="feComposite288" /><feBlend
         result="result2"
         in2="SourceGraphic"
         mode="screen"
         id="feBlend290" /><feComposite
         operator="in"
         in="result2"
         in2="SourceGraphic"
         result="fbSourceGraphic"
         id="feComposite292" /><feColorMatrix
         result="fbSourceGraphicAlpha"
         in="fbSourceGraphic"
         values="0 0 0 -1 0 0 0 0 -1 0 0 0 0 -1 0 0 0 0 1 0"
         id="feColorMatrix296" /><feColorMatrix
         id="feColorMatrix298"
         type="hueRotate"
         values="180"
         result="color1"
         in="fbSourceGraphic" /><feColorMatrix
         id="feColorMatrix300"
         values="-1 0 0 0 1 0 -1 0 0 1 0 0 -1 0 1 -0.21 -0.72 -0.07 2 0 "
         result="color2" /></filter><filter
       style="color-interpolation-filters:sRGB;"
       inkscape:label="Invert"
       id="filter306"
       x="0"
       y="0"
       width="1"
       height="1"><feColorMatrix
         type="hueRotate"
         values="180"
         result="color1"
         id="feColorMatrix302" /><feColorMatrix
         values="-1 0 0 0 1 0 -1 0 0 1 0 0 -1 0 1 -0.21 -0.72 -0.07 2 0 "
         result="color2"
         id="feColorMatrix304" /></filter><filter
       style="color-interpolation-filters:sRGB;"
       inkscape:label="Colorize"
       id="filter552"
       x="0"
       y="0"
       width="1"
       height="1"><feComposite
         in2="SourceGraphic"
         operator="arithmetic"
         k1="0"
         k2="8.08917"
         result="composite1"
         id="feComposite538" /><feColorMatrix
         in="composite1"
         values="1"
         type="saturate"
         result="colormatrix1"
         id="feColorMatrix540" /><feFlood
         flood-opacity="1"
         flood-color="rgb(0,167,32)"
         result="flood1"
         id="feFlood542" /><feBlend
         in="flood1"
         in2="colormatrix1"
         mode="lighten"
         result="blend1"
         id="feBlend544" /><feBlend
         in2="blend1"
         mode="lighten"
         result="blend2"
         id="feBlend546" /><feColorMatrix
         in="blend2"
         values="1"
         type="saturate"
         result="colormatrix2"
         id="feColorMatrix548" /><feComposite
         in="colormatrix2"
         in2="SourceGraphic"
         operator="in"
         k2="1"
         result="composite2"
         id="feComposite550" /></filter><filter
       style="color-interpolation-filters:sRGB;"
       inkscape:label="Colorize"
       id="filter632"
       x="0"
       y="0"
       width="1"
       height="1"><feComposite
         in2="SourceGraphic"
         operator="arithmetic"
         k1="0"
         k2="8.08917"
         result="composite1"
         id="feComposite618" /><feColorMatrix
         in="composite1"
         values="1"
         type="saturate"
         result="colormatrix1"
         id="feColorMatrix620" /><feFlood
         flood-opacity="1"
         flood-color="rgb(0,167,32)"
         result="flood1"
         id="feFlood622" /><feBlend
         in="flood1"
         in2="colormatrix1"
         mode="lighten"
         result="blend1"
         id="feBlend624" /><feBlend
         in2="blend1"
         mode="lighten"
         result="blend2"
         id="feBlend626" /><feColorMatrix
         in="blend2"
         values="1"
         type="saturate"
         result="colormatrix2"
         id="feColorMatrix628" /><feComposite
         in="colormatrix2"
         in2="SourceGraphic"
         operator="in"
         k2="1"
         result="composite2"
         id="feComposite630" /></filter><filter
       style="color-interpolation-filters:sRGB;"
       inkscape:label="Colorize"
       id="filter664"
       x="0"
       y="0"
       width="1"
       height="1"><feComposite
         in2="SourceGraphic"
         operator="arithmetic"
         k1="0"
         k2="8.08917"
         result="composite1"
         id="feComposite650" /><feColorMatrix
         in="composite1"
         values="1"
         type="saturate"
         result="colormatrix1"
         id="feColorMatrix652" /><feFlood
         flood-opacity="1"
         flood-color="rgb(0,167,32)"
         result="flood1"
         id="feFlood654" /><feBlend
         in="flood1"
         in2="colormatrix1"
         mode="lighten"
         result="blend1"
         id="feBlend656" /><feBlend
         in2="blend1"
         mode="lighten"
         result="blend2"
         id="feBlend658" /><feColorMatrix
         in="blend2"
         values="1"
         type="saturate"
         result="colormatrix2"
         id="feColorMatrix660" /><feComposite
         in="colormatrix2"
         in2="SourceGraphic"
         operator="in"
         k2="1"
         result="composite2"
         id="feComposite662" /></filter><filter
       style="color-interpolation-filters:sRGB;"
       inkscape:label="Invert"
       id="filter762"
       x="0"
       y="0"
       width="1"
       height="1"><feColorMatrix
         type="hueRotate"
         values="180"
         result="color1"
         id="feColorMatrix758" /><feColorMatrix
         values="-1 0 0 0 1 0 -1 0 0 1 0 0 -1 0 1 -0.21 -0.72 -0.07 2 0 "
         result="color2"
         id="feColorMatrix760" /></filter><filter
       style="color-interpolation-filters:sRGB;"
       inkscape:label="Invert"
       id="filter770"
       x="0"
       y="0"
       width="1"
       height="1"><feColorMatrix
         type="hueRotate"
         values="180"
         result="color1"
         id="feColorMatrix766" /><feColorMatrix
         values="-1 0 0 0 1 0 -1 0 0 1 0 0 -1 0 1 -0.21 -0.72 -0.07 2 0 "
         result="color2"
         id="feColorMatrix768" /></filter><filter
       style="color-interpolation-filters:sRGB;"
       inkscape:label="Invert"
       id="filter890"
       x="0"
       y="0"
       width="1"
       height="1"><feColorMatrix
         type="hueRotate"
         values="180"
         result="color1"
         id="feColorMatrix886" /><feColorMatrix
         values="-1 0 0 0 1 0 -1 0 0 1 0 0 -1 0 1 -0.21 -0.72 -0.07 2 0 "
         result="color2"
         id="feColorMatrix888" /></filter></defs><g
     inkscape:label="Layer 1"
     inkscape:groupmode="layer"
     id="layer1"><g
       id="g884"
       style="filter:url(#filter890)"
       transform="translate(12.249478,-9.4655037)"><ellipse
         style="fill:#000000;stroke-width:0.255042"
         id="path801"
         cx="95.072632"
         cy="111.91566"
         rx="51.08588"
         ry="41.759575" /><ellipse
         style="fill:#000000;stroke-width:0.256181"
         id="path803"
         cx="81.987976"
         cy="149.91687"
         rx="10.439894"
         ry="10.996688" /><ellipse
         style="fill:#000000;stroke-width:0.256181"
         id="path803-9"
         cx="106.90451"
         cy="149.77768"
         rx="10.439894"
         ry="10.996688" /><ellipse
         style="fill:#000000;stroke-width:0.264583"
         id="path827"
         cx="68.346512"
         cy="123.74755"
         rx="24.359753"
         ry="20.740591" /><ellipse
         style="fill:#000000;stroke-width:0.264583"
         id="path827-9"
         cx="119.43239"
         cy="123.88673"
         rx="24.359753"
         ry="20.740591" /><path
         style="fill:#000000;stroke-width:0.264583"
         d="m 59.576996,139.75538 c -0.720733,1.04251 -0.472123,2.25156 -0.835192,3.34076 -0.0415,0.12451 -0.236897,0.1539 -0.278397,0.2784 -0.152527,0.45758 0.21617,1.23805 0,1.67039 -0.222719,0.44543 -0.890871,0.66815 -1.113589,1.11358 -0.121687,0.24338 0.05877,0.87851 0,1.11359 -0.292838,1.17135 -0.689615,0.48401 -1.391986,0.83519 -0.166005,0.083 0.05869,0.38072 0,0.5568 -0.06562,0.19685 -0.13167,0.41007 -0.278397,0.55679 -0.161359,0.16136 -0.952231,0.39544 -1.113589,0.5568 -0.279014,0.27901 -0.510363,1.34555 -0.835192,1.67038 -0.131239,0.13124 -0.402368,-0.10295 -0.556794,0 -0.622303,0.41487 -0.908402,2.35915 -0.556795,3.06237 0.0415,0.083 0.212778,-0.0656 0.278397,0 0.185598,0.1856 -0.185597,0.92799 0,1.11359 0.1392,0.1392 0.695995,-0.1392 0.835192,0 0.06562,0.0656 -0.06562,0.21278 0,0.27839 0.227481,0.22749 1.442903,0.0509 1.670383,0.2784 0.576014,0.57602 -0.880226,-0.0225 0.278398,0.5568 0.222718,0.11136 0.612473,-0.11136 0.835191,0 1.28696,0.64348 2.363849,0.55679 3.897561,0.55679 1.073976,0 3.246866,0.3097 4.175956,0 2.109613,-0.7032 -0.100526,0.10053 0.556795,-0.55679 0.854514,-0.85452 0.231481,0.16265 1.113588,-0.2784 0.05428,-0.0271 0.217991,-0.49639 0.278398,-0.5568 0.1392,-0.13919 0.695994,0.1392 0.835191,0 0.06562,-0.0656 -0.06562,-0.21277 0,-0.27839 0.06362,-0.0636 1.018181,-0.80339 1.113589,-0.83519 0.352147,-0.11739 0.781582,0.166 1.113589,0 0.271513,-0.13576 0.171323,-1.00652 0.278397,-1.11359 0.06562,-0.0656 0.195395,0.0415 0.278398,0 0.299267,-0.14964 0.524531,-0.43253 0.835191,-0.55679 0.172323,-0.0689 0.425556,0.13123 0.556795,0 0.131236,-0.13124 -0.083,-0.3908 0,-0.5568 0.0415,-0.083 0.195395,0.0415 0.278397,0 0.155295,-0.0776 1.038262,-0.75987 1.113589,-0.83519 0.427117,-0.42712 0.674645,-1.23144 1.113589,-1.67038 0.170537,-0.17054 0.728593,-0.23701 0.835189,-0.5568 0.11136,-0.33408 -0.111358,-0.77951 0,-1.11359 0.365374,-1.09612 1.264928,-1.94736 1.670383,-3.06237 0.541404,-1.48886 0.716571,-4.52698 0.556795,-6.12473 -0.09231,-0.92314 -0.553702,-1.66111 -0.835192,-2.50558 -0.152022,-0.45607 -0.287774,-1.40136 -0.556794,-1.67038 -0.06562,-0.0656 -0.212778,0.0656 -0.278398,0 -0.06562,-0.0656 0.05148,-0.20119 0,-0.2784 -0.10038,-0.15057 -3.044187,-2.77488 -3.062367,-2.78397 -0.399063,-0.19953 -0.982633,-0.24978 -1.391986,-0.5568 -2.02775,-1.52081 0.653003,0.0321 -1.113589,-0.55679 -0.249007,-0.083 -0.307789,-0.47379 -0.556794,-0.55679 -1.524791,-0.50827 -5.089911,0.73537 -6.403136,1.39198 -0.597429,0.29872 -0.01281,0.30403 -0.278397,0.83519 -0.298771,0.59755 -0.853972,0.76744 -1.113589,1.11359 -0.09015,0.1202 -0.435669,1.14974 -0.556795,1.39199 -0.408315,0.81663 0.408318,2.24574 0,3.06237 -0.324133,0.64826 -0.939215,1.10442 -1.391983,1.67038 z"
         id="path853" /><path
         style="fill:#000000;stroke-width:0.264583"
         d="m 129.68524,140.44207 c 0.72073,1.04251 0.47212,2.25156 0.83519,3.34076 0.0415,0.12451 0.23689,0.1539 0.27839,0.2784 0.15253,0.45758 -0.21617,1.23805 0,1.67039 0.22272,0.44543 0.89088,0.66815 1.11359,1.11358 0.12169,0.24338 -0.0588,0.87851 0,1.11359 0.29284,1.17135 0.68962,0.48401 1.39199,0.83519 0.166,0.083 -0.0587,0.38072 0,0.5568 0.0656,0.19685 0.13167,0.41007 0.2784,0.55679 0.16136,0.16136 0.95223,0.39544 1.11359,0.5568 0.27901,0.27901 0.51036,1.34555 0.83519,1.67038 0.13124,0.13124 0.40237,-0.10295 0.55679,0 0.6223,0.41487 0.9084,2.35915 0.5568,3.06237 -0.0415,0.083 -0.21278,-0.0656 -0.2784,0 -0.1856,0.1856 0.1856,0.92799 0,1.11359 -0.1392,0.1392 -0.696,-0.1392 -0.83519,0 -0.0656,0.0656 0.0656,0.21278 0,0.27839 -0.22748,0.22749 -1.44291,0.0509 -1.67039,0.2784 -0.57601,0.57602 0.88023,-0.0225 -0.27839,0.5568 -0.22272,0.11136 -0.61248,-0.11136 -0.83519,0 -1.28696,0.64348 -2.36385,0.55679 -3.89757,0.55679 -1.07397,0 -3.24686,0.3097 -4.17595,0 -2.10961,-0.7032 0.10052,0.10053 -0.5568,-0.55679 -0.85451,-0.85452 -0.23148,0.16265 -1.11358,-0.2784 -0.0543,-0.0271 -0.218,-0.49639 -0.2784,-0.5568 -0.1392,-0.13919 -0.696,0.1392 -0.83519,0 -0.0656,-0.0656 0.0656,-0.21277 0,-0.27839 -0.0636,-0.0636 -1.01818,-0.80339 -1.11359,-0.83519 -0.35215,-0.11739 -0.78158,0.166 -1.11359,0 -0.27151,-0.13576 -0.17132,-1.00652 -0.2784,-1.11359 -0.0656,-0.0656 -0.19539,0.0415 -0.2784,0 -0.29926,-0.14964 -0.52453,-0.43253 -0.83519,-0.55679 -0.17232,-0.0689 -0.42555,0.13123 -0.55679,0 -0.13124,-0.13124 0.083,-0.3908 0,-0.5568 -0.0415,-0.083 -0.1954,0.0415 -0.2784,0 -0.15529,-0.0776 -1.03826,-0.75987 -1.11359,-0.83519 -0.42712,-0.42712 -0.67464,-1.23144 -1.11359,-1.67038 -0.17053,-0.17054 -0.72859,-0.23701 -0.83519,-0.5568 -0.11136,-0.33408 0.11136,-0.77951 0,-1.11359 -0.36537,-1.09612 -1.26492,-1.94736 -1.67038,-3.06237 -0.5414,-1.48886 -0.71657,-4.52698 -0.55679,-6.12473 0.0923,-0.92314 0.5537,-1.66111 0.83519,-2.50558 0.15202,-0.45607 0.28777,-1.40136 0.55679,-1.67038 0.0656,-0.0656 0.21278,0.0656 0.2784,0 0.0656,-0.0656 -0.0515,-0.20119 0,-0.2784 0.10038,-0.15057 3.04419,-2.77488 3.06237,-2.78397 0.39906,-0.19953 0.98263,-0.24978 1.39198,-0.5568 2.02775,-1.52081 -0.653,0.0321 1.11359,-0.55679 0.24901,-0.083 0.30779,-0.47379 0.5568,-0.55679 1.52479,-0.50827 5.08991,0.73537 6.40313,1.39198 0.59743,0.29872 0.0128,0.30403 0.2784,0.83519 0.29877,0.59755 0.85397,0.76744 1.11359,1.11359 0.0901,0.1202 0.43567,1.14974 0.55679,1.39199 0.40832,0.81663 -0.40832,2.24574 0,3.06237 0.32414,0.64826 0.93922,1.10442 1.39199,1.67038 z"
         id="path853-3" /></g><g
       id="g349"
       transform="translate(4.5356978,-9.7226297)"><path
         style="fill:#000000;stroke-width:0.264583;filter:url(#filter632)"
         id="path420"
         d="m 141.89241,53.419976 c -0.0898,-0.01021 -0.18004,-0.01696 -0.26938,-0.03061 -0.90926,-0.138832 0.2829,0.01191 -0.81971,-0.131043 -0.44211,-0.05732 -0.88606,-0.09713 -1.33003,-0.136556 -0.76546,-0.06725 -1.53453,-0.06903 -2.30232,-0.07647 -0.74879,0.0021 -1.49757,4.8e-5 -2.24634,-0.0042 -0.45822,-0.0042 -0.91646,-0.0031 -1.37469,-0.0062 -0.44041,0.0021 -0.88085,-5.29e-4 -1.32123,0.0051 -0.69641,-0.0056 -1.38508,-0.129439 -2.06041,-0.291783 -0.0448,-0.01318 -0.0889,-0.02922 -0.1344,-0.03953 -0.20219,-0.04576 0.0663,0.547082 0.082,0.55667 0.0516,0.03149 0.1185,-0.02442 0.17687,-0.04017 0.0811,-0.02186 0.16082,-0.04838 0.24124,-0.07257 0.54694,-0.190412 1.12216,-0.25264 1.69687,-0.281807 0.0984,-0.0029 0.19685,-0.0065 0.2953,-0.0088 0.10328,-0.0024 0.20658,-0.004 0.30988,-0.0052 0.10085,-0.0011 0.4034,-0.0037 0.30256,-0.0019 -1.80284,0.03301 -3.60572,0.0629 -5.40857,0.09539 -0.10176,0.0019 0.20356,-0.0016 0.30532,-0.0034 2.01162,-0.03709 4.02321,-0.07565 6.03481,-0.11348 0.70809,-0.150005 1.41633,-0.299601 2.12212,-0.460049 0.5017,-0.120886 1.02483,-0.250643 1.5442,-0.2095 -1.87619,0.0353 -3.75238,0.07053 -5.62857,0.105915 -0.0486,7.94e-4 0.0973,-0.0011 0.14593,-0.0026 0.2135,-0.006 0.34601,-0.01146 0.5533,0.05395 0.30598,0.146478 0.53166,0.351774 0.7617,0.593986 0.14879,0.144127 0.27946,0.316585 0.45963,0.424728 0.37597,0.225669 -0.12075,-0.102264 0.22123,0.127953 0.16974,0.118488 0.22514,0.274724 0.26641,0.467328 0.0305,0.371049 -0.001,0.747472 -0.0301,1.118333 -0.001,0.183732 -0.0392,0.367371 -0.0301,0.55146 0.11554,2.335803 5.51637,0.482121 6.08463,0.48903 0.27626,-0.284065 0.55328,-0.564881 0.84908,-0.829694 0.18767,-0.311637 0.31009,-0.655878 0.50371,-0.963859 0.0356,-0.03707 0.0973,-0.119935 0.16138,-0.125902 0.0234,-0.0021 0.0888,0.02593 0.0652,0.02703 -1.96003,0.09092 -3.91951,0.273603 -5.88141,0.242782 -0.13173,-0.0021 -0.019,-0.262922 -0.0349,-0.393703 -0.0109,0.0057 -0.0217,0.01143 -0.0326,0.01715 -0.0167,0.01614 -0.03,0.03678 -0.05,0.04845 -0.0589,0.03426 -0.12866,0.04515 -0.19255,0.06893 -0.20093,0.07476 -0.0808,0.0276 -0.28992,0.113216 -0.23573,0.02884 -0.47476,0.109362 -0.71461,0.101364 -0.0485,-0.0016 -0.19191,-0.02365 -0.14341,-0.02466 1.90831,-0.03957 3.81697,-0.06074 5.72545,-0.0911 -0.004,0.0016 -0.10869,0.03908 -0.11832,0.06265 -0.0262,0.06405 0.0269,0.170236 0.006,0.171739 -5.86662,0.417028 -7.3627,-1.053317 -5.91282,0.358515 0.0612,0.272394 0.0489,0.555996 0.0473,0.833647 -0.043,0.273471 0.004,0.03905 -0.0709,0.278881 -0.0674,0.214943 -0.0865,0.311396 -0.22962,0.489506 -0.0224,0.03368 -0.041,0.07016 -0.067,0.101036 -0.0194,0.02299 -0.0478,0.03709 -0.0683,0.05914 -0.0879,0.09457 -0.0716,0.110033 -0.15828,0.221637 -0.034,0.04377 -0.22869,0.252454 -0.25668,0.282752 -0.24586,0.293555 -0.52908,0.549685 -0.79777,0.821666 -0.16556,0.222136 -0.39629,0.380791 -0.58458,0.579633 -0.11266,0.118978 -0.21466,0.247698 -0.32602,0.367895 -0.54728,0.533607 -0.96991,1.176534 -1.4475,1.770373 -0.63287,0.750988 -1.35154,1.423976 -2.09864,2.059249 -0.52093,0.432102 -1.03232,0.878213 -1.58276,1.272691 -0.43301,0.301625 -0.83123,0.654703 -1.27714,0.937741 -0.0493,0.08961 -0.15738,0.101735 -0.2258,0.165074 -0.0392,0.03624 -0.0642,0.0855 -0.10052,0.124544 -0.12808,0.137594 -0.26962,0.260872 -0.41864,0.37474 -0.31484,0.173263 -0.62234,0.364541 -0.94598,0.521198 -0.78983,0.382309 0.3623,-0.220395 -0.45365,0.213421 -0.23083,0.130074 -0.48064,0.216466 -0.72281,0.319963 -0.24651,0.105352 -0.48023,0.241686 -0.71182,0.375425 -0.55446,0.378714 -1.17602,0.640466 -1.75557,0.977345 -0.0711,0.03739 -0.1429,0.07339 -0.21323,0.112159 -0.0611,0.03366 -0.11855,0.07386 -0.1809,0.10509 -0.18565,0.09298 -0.39807,0.137435 -0.59981,0.179541 -0.0468,0.0067 -0.0932,0.01556 -0.14026,0.02008 -0.0925,0.0089 -0.1862,-0.0024 -0.27855,0.0077 -0.16508,0.01786 -0.32808,0.08026 -0.49129,0.111585 -0.77289,0.354804 -1.57931,0.624337 -2.38491,0.893276 -0.49806,0.135834 -0.97156,0.349686 -1.46993,0.483465 -0.17304,0.04645 -0.34842,0.08382 -0.52177,0.129109 -0.42126,0.110008 -0.8099,0.307337 -1.20687,0.480372 -0.0627,0.02257 -0.12405,0.04932 -0.1881,0.06773 -0.0618,0.01775 -0.12609,0.02513 -0.18848,0.04054 -0.50362,0.124261 0.12149,-0.02125 -0.3854,0.117586 -0.13807,0.03782 -0.25961,0.05252 -0.40072,0.0744 -0.41186,0.09605 -0.83352,0.11957 -1.25458,0.132691 -3.04573,0.01648 7.52562,-0.111369 4.90214,-0.09559 -0.28258,0.0013 -0.56516,-5.29e-4 -0.84773,2.64e-4 -0.4421,-0.0019 -0.88427,0.01299 -1.3261,-0.0027 -0.31082,-0.05055 -0.63771,-0.03619 -0.94376,-0.117473 -0.11169,-0.02966 -0.28401,-0.107434 -0.39195,-0.15354 -0.31154,-0.132705 -0.58308,-0.321485 -0.83883,-0.539007 -0.19668,-0.133043 -0.33133,-0.308967 -0.4051,-0.532418 -0.0535,-0.304951 0.0486,-0.599906 0.13982,-0.887264 0.13269,-0.353304 0.29716,-0.693389 0.42016,-1.050534 0.11477,-0.261382 0.18874,-0.541933 0.31263,-0.799417 0.0146,-0.03043 0.17146,-0.292272 0.18755,-0.319302 0.1038,-0.212315 0.27507,-0.374936 0.42372,-0.553908 0.1328,-0.15989 0.18086,-0.249774 0.32702,-0.39551 0.056,-0.0558 0.11935,-0.103645 0.17903,-0.155466 0.33644,-0.327186 0.74023,-0.577247 1.07331,-0.905849 0.37469,-0.376563 0.72002,-0.777697 1.06626,-1.180036 0.40656,-0.464 0.868,-0.883087 1.24147,-1.374587 0.18871,-0.183489 0.33539,-0.402738 0.50184,-0.604586 0.13414,-0.162664 0.27378,-0.31065 0.39664,-0.482862 0.11395,-0.169897 0.1868,-0.36644 0.3002,-0.536337 0.0688,-0.10305 0.21264,-0.267301 0.28825,-0.356891 0.37748,-0.45711 0.83154,-0.846207 1.26882,-1.24523 0.52485,-0.401992 1.0018,-0.859388 1.521,-1.268537 0.17302,-0.131606 0.32985,-0.245052 0.49137,-0.390596 0.0745,-0.06716 0.13924,-0.144894 0.21527,-0.210347 0.0674,-0.058 0.143,-0.105645 0.21398,-0.159176 0.24112,-0.181858 0.18864,-0.143102 0.43012,-0.341952 0.64839,-0.535771 1.32112,-1.03994 2.05735,-1.448356 0.0993,-0.05117 0.2002,-0.09921 0.2978,-0.153503 0.0876,-0.04875 0.16999,-0.106633 0.25761,-0.155448 0.26412,-0.147164 0.55062,-0.265531 0.82774,-0.386038 0.0637,-0.02824 0.128,-0.05529 0.19119,-0.08471 0.19044,-0.08868 0.21321,-0.1134 0.41159,-0.183814 0.20647,-0.07328 0.4214,-0.121068 0.6291,-0.191701 0.40846,-0.163324 0.83326,-0.289502 1.25616,-0.41094 0.40931,-0.06055 0.7862,-0.231129 1.17159,-0.370914 0.29322,-0.09807 0.5865,-0.210307 0.89247,-0.262919 0.14728,-0.02532 0.34153,-0.04137 0.48962,-0.05575 0.25497,-0.01963 0.51061,-0.02582 0.76622,-0.02931 0.0937,-0.0013 0.37464,-0.0046 0.28099,-0.0028 -4.78688,0.08848 -7.31184,0.126873 -5.19038,0.09441 0.47085,-0.0046 0.94172,-0.0021 1.41256,0.0019 2.15518,0.02611 4.30721,-0.06026 6.46321,-0.149595 0.0634,-0.0026 0.10604,-0.06998 0.16174,-0.100367 0.0523,-0.02851 0.10775,-0.05068 0.16162,-0.07602 0.30014,-0.152919 0.63578,-0.234524 0.96658,-0.292119 0.33308,-0.01331 0.65882,-0.07649 0.99189,-0.09633 2.10245,-0.04266 4.89788,-0.08181 -5.00383,0.08884 0.13592,0.0093 0.27151,-0.01273 0.40649,-0.01648 0.12552,-0.0035 0.25071,0.01984 0.37637,0.02167 0.24238,0.0377 0.47695,0.09788 0.71256,0.16706 0.077,0.02278 0.16389,0.05503 0.24637,0.05746 0.0276,7.94e-4 0.0549,-0.0061 0.082,-0.01151 0.0216,-0.0043 0.0423,-0.02262 0.0638,-0.01767 0.0655,0.01511 0.0808,0.113771 0.0965,0.155991 0.0821,0.386109 0.082,0.771504 7.9e-4,1.156486 -0.0697,0.219239 -0.12867,0.489627 -0.31404,0.647583 -0.0588,0.05009 -0.23775,0.136271 -0.30108,0.168693 -0.0597,0.01617 -0.11877,0.03517 -0.1792,0.04854 -0.18139,0.04014 -0.38258,0.07202 -0.56896,0.06457 -0.0802,-0.0032 -0.31958,-0.02275 -0.23939,-0.02466 1.80388,-0.04314 3.60818,-0.06604 5.41227,-0.09905 -0.57021,0.0071 -1.1375,-0.06189 -1.69823,-0.159406 -0.38496,-0.0758 -0.76431,-0.201692 -1.09103,-0.421995 -0.0311,-0.02381 -0.15279,-0.110161 -0.17947,-0.15332 -0.10926,-0.176755 0.0199,-0.395748 0.0918,-0.55612 0.1825,-0.325567 0.41711,-0.640249 0.76495,-0.796314 1.87261,0.793941 0.30939,0.113189 -5.64315,0.214392 -0.0439,7.94e-4 0.0692,-0.08735 0.11029,-0.07196 0.065,0.02434 0.0995,0.100124 0.13055,0.16216 0.11881,0.23703 0.13568,0.443913 0.18216,0.701845 0.12394,0.800645 0.1431,1.61345 0.0797,2.420083 -0.0208,0.377221 -0.12921,0.74046 -0.17797,1.113377 -0.0127,0.09673 -0.057,0.542689 -0.0651,0.622652 -0.0707,0.602586 -0.11158,1.228256 -0.35163,1.794475 -0.0587,0.138433 -0.13466,0.26888 -0.20199,0.403321 -0.51166,0.808773 -1.20341,1.477025 -1.89753,2.127101 -0.63244,0.543349 -1.31679,1.021086 -2.01574,1.473931 -0.28912,0.18933 -0.5886,0.364786 -0.89319,0.528182 -0.0324,0.01738 -0.36151,0.186915 -0.42309,0.193249 -0.0549,0.0056 -0.10665,-0.02816 -0.15997,-0.04224 1.91788,-0.0054 3.83687,0.04957 5.75363,-0.01617 0.0626,-0.0021 -0.0548,-0.116594 -0.0567,-0.179223 -0.005,-0.156806 0.0114,-0.314397 0.037,-0.469175 0.12401,-0.750525 0.41792,-1.446054 0.69888,-2.147192 0.49091,-1.032158 0.94906,-2.081644 1.31206,-3.166102 0.24701,-0.641956 0.32375,-1.318736 0.30158,-2.001472 0.007,-0.578829 -0.20542,-1.101979 -0.43466,-1.621325 -0.22092,-0.444283 -0.44649,-0.888716 -0.70791,-1.310904 -0.16698,-0.25912 -0.33612,-0.54437 -0.61693,-0.696741 -0.0628,-0.03407 -0.13183,-0.05502 -0.19774,-0.08253 -0.0601,-0.01728 -0.11902,-0.03908 -0.18021,-0.05182 -0.0587,-0.01222 -0.11853,-0.02365 -0.17852,-0.02283 -1.99067,0.0278 -3.98115,0.06856 -5.97162,0.108715 -0.1934,0.0039 -0.30972,0.08996 -0.46621,0.193945 -0.32653,0.221331 -0.53768,0.561022 -0.76689,0.87277 -0.36649,0.498441 -0.10643,0.09371 -0.44811,0.667959 -0.48618,0.949365 -0.75583,1.911575 -0.96595,2.95048 -0.18703,1.035526 -0.24741,2.090761 -0.27501,3.141316 -0.0151,0.742683 -0.0699,1.483958 -0.0962,2.225839 -0.0479,0.803333 -0.14155,1.604661 -0.24648,2.402464 -0.11415,0.681617 -0.27473,1.354172 -0.44989,2.022338 -0.0902,0.400941 -0.21405,0.790498 -0.39548,1.159113 -0.0555,2.210731 -0.0844,0.441814 5.99179,0.387995 0.0799,-7.94e-4 0.0546,-0.150669 0.0902,-0.222234 0.20812,-0.41793 0.50604,-0.783743 0.78887,-1.151202 0.5543,-0.795123 1.20176,-1.518076 1.79289,-2.284738 0.50606,-0.677815 0.25593,-0.34911 0.74957,-0.986742 0.37766,-0.551553 0.86727,-1.026483 1.16784,-1.628257 0.0442,-0.167261 0.0894,-0.256196 0.0213,-0.443447 -0.69158,-1.899372 -5.90424,-0.256164 -6.25109,-0.237474 -0.14102,0.0076 -0.23067,0.163317 -0.34046,0.252127 -0.1534,0.124071 -0.29907,0.257397 -0.4486,0.386093 -0.62005,0.539295 -1.26487,1.051248 -1.88218,1.593636 -0.0176,0.01548 -0.6148,0.569693 -0.6564,0.60828 -0.30421,0.262315 -0.6088,0.529492 -0.87393,0.832559 -0.2241,0.256169 -0.0259,0.06965 -0.24375,0.261453 -0.27985,0.233294 -0.5253,0.499761 -0.72915,0.801023 -0.25182,0.329843 -0.44944,0.703382 -0.73381,1.008531 -0.0531,0.05695 -0.11472,0.10527 -0.17208,0.157904 -0.17061,0.195791 -0.39973,0.31002 -0.61498,0.445624 -0.25315,0.159491 -0.49615,0.320852 -0.76011,0.462822 -0.0739,0.04101 -0.14732,0.08277 -0.2216,0.123029 -0.0845,0.04583 -0.40054,0.210452 -0.47937,0.255651 -0.24165,0.138568 -0.46706,0.294397 -0.71406,0.423989 -0.47872,0.23412 -0.92726,0.534845 -1.42375,0.73015 -0.4244,0.184187 -0.88861,0.258646 -1.33811,0.360939 -0.67928,0.170593 -1.38486,0.182142 -2.08113,0.204891 9.55408,-0.4181 5.98919,0.09782 3.90631,-0.180785 -0.18894,-0.02453 -0.41751,-0.0654 -0.49038,-0.27196 -0.0199,-0.05634 -0.0219,-0.117464 -0.0329,-0.176196 -0.037,-0.588592 0.20018,-1.036172 0.51377,-1.515533 0.43989,-0.645713 0.99343,-1.199963 1.49673,-1.794635 0.48016,-0.542763 0.96771,-1.078055 1.41534,-1.648317 0.38006,-0.551249 0.85392,-1.026768 1.29591,-1.527283 0.44487,-0.45107 0.85222,-0.9363 1.28385,-1.399853 0.15937,-0.185417 0.32406,-0.372573 0.46326,-0.574233 0.28299,-0.409982 0.0319,-0.112665 0.37354,-0.565491 0.0785,-0.103981 0.16535,-0.201327 0.24802,-0.30199 0.31937,-0.416028 0.70191,-0.77747 1.03944,-1.178102 0.97175,-1.153417 -0.41018,0.441814 0.49503,-0.597427 0.27306,-0.281051 0.50574,-0.60193 0.78758,-0.874551 0.18885,-0.18266 0.21657,-0.190574 0.43242,-0.346255 0.43167,-0.320532 0.85577,-0.665239 1.36378,-0.85648 1.99763,0.447794 1.09985,0.232669 -5.55825,0.188939 -0.0637,-5.29e-4 0.0126,-0.126712 0.0189,-0.190074 5.3e-4,-0.0052 -1.4e-4,0.01056 -0.002,0.01556 -0.026,0.08561 -0.0497,0.172092 -0.0808,0.255957 -0.0474,0.127368 -0.10304,0.251482 -0.15456,0.377225 -0.34396,0.67006 -0.82104,1.253117 -1.2998,1.829131 -0.32774,0.332525 -0.65468,0.661307 -0.95675,1.017397 -0.0712,0.08397 -0.14892,0.162673 -0.21544,0.25043 -0.0729,0.09622 -0.13478,0.200353 -0.20218,0.30053 -0.35659,0.6057 -0.7331,1.199234 -1.09562,1.801344 -0.3457,0.448731 -0.6804,0.903793 -1.05206,1.331344 -0.29157,0.409199 -0.65985,0.756713 -0.95501,1.162581 -0.20116,0.276625 -0.24106,0.369412 -0.40956,0.670592 -0.42867,0.669735 -0.78677,1.37826 -1.10519,2.105814 -0.0483,0.11058 -0.0997,0.219826 -0.14484,0.33174 -0.0429,0.10641 -0.0778,0.215897 -0.11901,0.32295 -0.10286,0.26692 -0.23433,0.532395 -0.29807,0.812948 -0.0231,0.101772 -0.0316,0.20632 -0.0475,0.309478 -0.0163,0.399706 -0.0682,0.90002 0.0684,1.286362 0.0265,0.07482 0.0664,0.144177 0.0995,0.216265 1.371,1.75823 0.25071,0.42165 6.17203,0.06136 0.11653,-0.0071 0.15361,-0.175948 0.234,-0.260609 0.0871,-0.09175 0.18367,-0.174429 0.26837,-0.268422 0.19769,-0.219401 0.4212,-0.523793 0.59782,-0.755666 0.61222,-0.770888 1.18976,-1.569691 1.76161,-2.370931 0.35519,-0.520804 0.73173,-1.025263 1.13532,-1.509192 0.41971,-0.491479 0.8317,-0.989562 1.24966,-1.482566 0.2721,-0.293672 0.4833,-0.635394 0.72558,-0.952159 0.47173,-0.616738 -0.11574,0.192178 0.32704,-0.425032 0.16764,-0.249695 0.47418,-0.447061 0.54746,-0.754678 0.0128,-0.05362 0.0113,-0.109662 0.017,-0.164495 -0.22351,-2.217787 0.0345,-0.445915 -6.02036,-0.08749 -0.0722,0.0043 -0.0334,0.141068 -0.0577,0.209243 -0.0278,0.07819 -0.0667,0.151998 -0.0979,0.228859 -0.0327,0.08037 -0.23001,0.591196 -0.25387,0.652822 -0.25219,0.934133 -0.53671,1.859603 -0.76268,2.800668 -0.0944,0.413176 -0.0442,0.221334 -0.14645,0.576651 0,0 5.81629,0.01463 5.81629,0.01463 v 0 c 0.0309,-0.362837 0.0138,-0.172355 0.0522,-0.571394 0.13428,-0.919637 0.34533,-1.835979 0.77278,-2.668218 0.14163,-0.274415 0.17349,-0.351681 0.3321,-0.603575 0.0487,-0.07737 0.0962,-0.156051 0.15356,-0.227269 0.0339,-0.04208 0.17247,-0.109633 0.11846,-0.110622 -5.92412,-0.108652 -6.15382,1.950548 -5.85975,-0.163661 0.003,-0.01164 0.0187,-0.03924 0.008,-0.03491 -0.0143,0.0056 -0.0141,0.02735 -0.022,0.04051 -0.0192,0.03184 -0.0385,0.06369 -0.0595,0.09442 -0.0713,0.104492 -0.14837,0.20497 -0.2206,0.308832 -0.0443,0.06376 -0.0875,0.128349 -0.13125,0.192524 -0.31859,0.45639 -0.64887,0.902997 -1.00516,1.330926 -0.41661,0.497734 -0.81719,1.008163 -1.2562,1.48699 -0.40686,0.494202 -0.72528,1.023278 -1.06278,1.565492 -0.15137,0.23123 -0.29572,0.467024 -0.44826,0.697484 -0.37519,0.566864 -0.80345,1.095446 -1.24106,1.614789 -0.27536,0.284601 -0.62437,0.678204 -0.99772,0.842327 -0.0889,0.03907 -0.38119,0.06334 -0.28411,0.06405 5.60125,0.04121 7.02909,-1.271953 5.51216,0.07576 -0.0327,0.0056 -0.0677,0.03012 -0.0981,0.0168 -0.0731,-0.03203 -0.11126,-0.211415 -0.12084,-0.257656 -0.0471,-0.227439 -0.0516,-0.463103 -0.0233,-0.692936 0.12951,-0.561433 0.33463,-1.103202 0.53183,-1.643685 0.31767,-0.701637 0.68198,-1.38214 1.09876,-2.030314 0.42118,-0.623686 0.89439,-1.209112 1.42807,-1.74117 0.37703,-0.451297 0.73732,-0.919178 1.04685,-1.419865 0.0582,-0.09226 0.12043,-0.182121 0.17464,-0.276794 0.0956,-0.166989 0.17114,-0.344771 0.26159,-0.514612 0.17964,-0.337309 0.37822,-0.664324 0.62446,-0.958112 0.14199,-0.168373 0.27816,-0.341675 0.42301,-0.50759 0.30809,-0.352904 0.65456,-0.671295 0.9512,-1.03464 0.16342,-0.198569 0.29417,-0.346585 0.43605,-0.560017 0.29923,-0.450117 0.54135,-0.939056 0.80543,-1.409496 0.2046,-0.373438 0.47703,-0.779714 0.46419,-1.228312 -0.004,-0.129625 0.0357,-0.372417 -0.0938,-0.377547 -5.5548,-0.219938 -4.40129,-1.066292 -6.10227,0.248253 -0.44737,0.307155 -0.87536,0.641897 -1.30318,0.975397 -0.20116,0.17848 -0.2828,0.241546 -0.46414,0.439375 -0.26061,0.284313 -0.48026,0.605422 -0.72503,0.902742 -0.47241,0.617474 -1.02586,1.16599 -1.50482,1.778805 -0.21134,0.262432 -0.29478,0.371853 -0.51701,0.624699 -0.0763,0.08678 -0.15938,0.167508 -0.23368,0.255977 -0.14389,0.171299 -0.26172,0.366202 -0.41145,0.533315 -0.40074,0.479634 -0.84105,0.921401 -1.24064,1.401665 -0.4575,0.515591 -0.92924,1.02009 -1.34869,1.567839 -0.10833,0.147581 -0.21139,0.299034 -0.32162,0.445195 -0.30979,0.410734 -0.67135,0.77832 -1.00365,1.170247 -0.53585,0.602086 -1.07297,1.206151 -1.51503,1.882844 -0.20161,0.334798 -0.4046,0.673452 -0.52493,1.048594 -0.0883,0.275283 -0.096,0.568391 -0.10375,0.854168 0.0214,0.334909 0.0294,0.639968 0.25086,0.914868 0.0684,0.08487 0.2308,0.18542 0.31609,0.243639 0.0709,0.024 0.14031,0.05316 0.21278,0.07203 0.19712,0.05132 0.34839,0.06115 0.55265,0.08107 2.24697,0.219106 4.55337,-0.404823 6.77028,-0.06207 0.74214,-0.04371 1.48423,-0.10286 2.20539,-0.295826 0.47289,-0.113638 0.94541,-0.240469 1.37011,-0.48505 0.46469,-0.264631 0.93587,-0.517191 1.40479,-0.774096 0.46133,-0.286785 0.94737,-0.528746 1.40872,-0.814716 0.49276,-0.327692 1.01973,-0.622403 1.41068,-1.076592 0.31205,-0.404813 0.61256,-0.8186 0.94728,-1.205495 0.0813,-0.08681 0.15782,-0.178099 0.24108,-0.263025 0.1639,-0.16719 0.3533,-0.309988 0.50055,-0.493964 0.28952,-0.380679 0.60357,-0.73883 0.94702,-1.07253 0.73626,-0.761937 1.49109,-1.523352 2.38462,-2.101763 0.19127,-0.09314 0.37364,-0.207362 0.57381,-0.279421 0.13849,-0.04986 0.2891,-0.05551 0.43365,-0.08326 -1.84428,0.007 -3.68856,0.01389 -5.53284,0.02085 -0.0802,-0.0034 0.23935,-0.483063 0.11879,-0.243589 -0.22577,0.542537 -0.56611,1.027079 -0.86825,1.528162 -0.76676,1.129104 -1.5681,2.242389 -2.51473,3.229621 -0.26684,0.285144 -0.52892,0.583065 -0.82681,0.837859 -0.0901,0.07707 -0.17925,0.161652 -0.28817,0.208491 -0.0416,0.01789 -0.17839,-0.02869 -0.13311,-0.02731 5.94218,0.180848 6.32586,-1.7117 5.8565,0.343437 -0.002,-0.165991 0.0641,-0.32799 0.11196,-0.485058 0.0891,-0.292232 0.0662,-0.186261 0.12527,-0.472328 0.0161,-0.07814 0.0306,-0.156621 0.0459,-0.234929 0.13371,-0.685432 0.19014,-1.384176 0.30059,-2.073511 0.11497,-0.819221 0.28659,-1.63018 0.35688,-2.455185 0.0394,-0.745096 -0.0375,-1.490297 -0.0297,-2.236147 0.021,-1.015783 0.0372,-2.035564 0.24487,-3.034871 0.21877,-0.953789 0.48248,-1.916425 1.04561,-2.731709 0.27977,-0.362424 0.56426,-0.761376 0.9582,-1.011172 0.14678,-0.09307 0.24154,-0.110694 0.40399,-0.160668 0.31079,-0.02963 0.0204,-0.01167 0.30362,-0.0036 0.0481,0.0013 0.19252,-0.0046 0.14438,-0.0038 -9.51001,0.158438 -7.27483,0.336222 -5.29682,0.04915 0.35071,-0.01326 0.55634,-0.0021 0.76138,0.320575 0.3444,0.509373 -0.13662,-0.18967 0.23724,0.312761 0.20905,0.280948 0.3643,0.600064 0.54011,0.901451 0.20138,0.450226 0.38843,0.91149 0.42231,1.409295 0.015,0.201917 0.0312,0.331124 0.0188,0.535594 -0.0258,0.426365 -0.12329,0.847661 -0.20752,1.26474 -0.29566,1.062519 -0.69374,2.090092 -1.05899,3.129941 -0.53962,1.427732 -0.0119,0.05333 -0.60137,1.522169 -0.14202,0.353917 -0.37737,0.917017 -0.45678,1.309592 -0.0338,0.167323 -0.21544,0.487239 -0.0463,0.510038 1.96763,0.265152 3.96627,0.190304 5.94941,0.285453 0.42346,-0.329287 0.89562,-0.593457 1.3315,-0.905745 0.19671,-0.134154 0.45951,-0.310015 0.64933,-0.453147 0.45275,-0.341378 0.85285,-0.747339 1.2814,-1.117301 0.18876,-0.171743 0.57751,-0.517429 0.75501,-0.709517 0.446,-0.482658 0.77954,-1.065107 1.15303,-1.601224 0.0972,-0.167431 0.20924,-0.327049 0.29148,-0.502293 0.0593,-0.126476 0.0934,-0.263567 0.13103,-0.398113 0.13658,-0.488352 0.16511,-0.99781 0.261,-1.494131 0.11902,-0.595209 0.22358,-1.194864 0.22985,-1.803956 -0.0119,-0.84338 -0.0304,-1.687234 -0.1108,-2.527572 -0.0545,-0.392261 -0.0725,-0.802855 -0.17368,-1.186932 -0.0306,-0.116213 0.004,-0.337047 -0.11635,-0.341246 -5.76379,-0.201554 -4.72457,-1.405871 -6.08408,0.25649 -0.29224,0.332412 -0.5319,0.704823 -0.71392,1.109033 -0.0324,0.08679 -0.0714,0.171407 -0.0973,0.260368 -0.096,0.329861 -0.10428,0.71619 0.0531,1.031071 0.0308,0.06172 0.0822,0.110791 0.12338,0.166187 0.0779,0.07169 0.23164,0.217128 0.31554,0.277395 0.25985,0.186663 0.56186,0.285477 0.85504,0.403939 0.57685,0.155218 1.17012,0.217487 1.76377,0.273317 2.01072,-0.03147 4.02169,-0.04993 6.03217,-0.09441 0.39543,-0.0088 0.77143,-0.195471 1.07232,-0.437562 0.15205,-0.152776 0.20353,-0.188236 0.32182,-0.378746 0.16389,-0.263962 0.22122,-0.577281 0.28586,-0.875739 0.0652,-0.459727 0.12467,-0.928264 0.0513,-1.390867 -0.0374,-0.242573 -0.0568,-0.580951 -0.27206,-0.74376 -0.077,-0.05826 -0.1737,-0.06339 -0.26356,-0.07863 -0.12043,-0.02789 -0.25097,-0.05531 -0.36732,-0.09713 -0.0375,-0.01347 -0.0699,-0.03916 -0.10768,-0.05182 -0.0745,-0.02498 -0.15819,-0.0158 -0.2294,-0.05466 -0.1444,-0.0536 -0.24495,-0.0565 -0.392,-0.08844 -0.0464,-0.01005 -0.0909,-0.02896 -0.13799,-0.0349 -0.0939,-0.01185 -0.1901,0.01156 -0.284,-0.0013 -2.12899,0.03597 -4.44337,-0.0896 -6.63569,0.161422 -0.33861,0.04812 -0.68286,0.08004 -1.01071,0.179967 -0.32666,0.107942 -0.64511,0.232667 -0.96406,0.360365 -0.0529,0.01487 -0.10425,0.03667 -0.15859,0.04464 -0.0539,0.0079 -0.21797,0.0037 -0.16348,0.0026 9.78817,-0.192156 7.19766,-0.113508 5.14644,-0.108296 -0.48575,0.0016 -0.9715,5.29e-4 -1.45726,-1.6e-5 -2.25358,0.0024 -0.57394,-7.94e-4 -6.27259,0.107416 -0.13821,0.0026 -0.44013,0.02016 -0.57659,0.03245 -0.2024,0.0182 -0.29899,0.03655 -0.50135,0.06785 -0.48464,0.09931 -0.95091,0.256951 -1.41578,0.424778 -0.3893,0.13252 -0.78883,0.224039 -1.17986,0.349819 -0.41579,0.141581 -0.83606,0.269455 -1.2477,0.423376 -0.43048,0.141687 -0.83849,0.33397 -1.24668,0.529984 -0.44234,0.228746 -0.86249,0.492273 -1.27479,0.77161 -0.70785,0.498948 -1.39217,1.030417 -2.11625,1.506357 -0.46205,0.349531 -0.87423,0.755862 -1.32536,1.119323 -0.12301,0.108217 -0.39472,0.348832 -0.51734,0.450022 -0.3432,0.283225 -0.71327,0.533259 -1.0269,0.851577 -0.44234,0.427961 -0.91858,0.824145 -1.29909,1.311545 -0.24731,0.294814 -0.4805,0.598265 -0.6624,0.938374 -0.25365,0.362013 -0.53235,0.704498 -0.81319,1.045628 -0.40438,0.441849 -0.77285,0.915477 -1.19276,1.34344 -0.15904,0.156567 -0.32303,0.308081 -0.48076,0.465963 -0.22264,0.222856 -0.43074,0.462227 -0.6799,0.657363 -0.36531,0.293817 -0.70906,0.614055 -1.04551,0.940189 -0.3534,0.399878 -0.694,0.818295 -0.97853,1.270092 -0.19525,0.390745 -0.32734,0.807609 -0.50668,1.205696 -0.14168,0.366644 -0.31135,0.720963 -0.4397,1.091933 -0.0996,0.383815 -0.18164,0.774999 -0.1391,1.17362 0.0194,0.139022 0.0268,0.244996 0.0734,0.377859 0.0706,0.201345 0.20826,0.380087 0.34115,0.542973 0.28923,0.245022 0.57658,0.492289 0.90989,0.677547 0.48336,0.264613 -0.0928,-0.04599 0.42096,0.215062 0.0775,0.03938 0.14947,0.09003 0.22972,0.123457 0.24102,0.100393 0.49886,0.0888 0.7515,0.133757 0.16706,0.02689 0.33187,0.05811 0.50116,0.06792 0.25121,0.01455 0.50484,-0.0087 0.75629,0.0035 0.27778,0.0019 0.55557,0.0013 0.83334,0.0034 2.24414,0.0093 4.49365,0.04043 6.73114,-0.134247 0.41993,-0.04787 0.83478,-0.123476 1.2463,-0.220149 0.39869,-0.113829 0.80016,-0.227717 1.17405,-0.409821 0.3817,-0.161484 0.77055,-0.302853 1.17156,-0.409419 0.62049,-0.193482 1.21471,-0.460799 1.83322,-0.660935 0.46954,-0.166611 0.9399,-0.330602 1.41261,-0.488074 0.34977,-0.116517 0.50894,-0.175961 0.86634,-0.252296 0.10052,-0.02146 0.20306,-0.03208 0.3046,-0.04812 0.31613,-0.0612 0.64377,-0.06195 0.93949,-0.206129 0.32932,-0.14174 0.62415,-0.336852 0.92369,-0.532987 0.56717,-0.333383 1.14639,-0.648423 1.73146,-0.948772 0.48943,-0.224806 0.98329,-0.439471 1.4614,-0.688227 0.50174,-0.241046 0.98058,-0.536019 1.43499,-0.856763 0.15722,-0.134368 0.31332,-0.280067 0.47843,-0.40477 0.0364,-0.02753 0.0796,-0.04537 0.11586,-0.07313 0.0657,-0.05027 0.11247,-0.122941 0.18708,-0.162951 0.37127,-0.332394 0.75592,-0.650677 1.15976,-0.942859 0.53512,-0.412649 1.04825,-0.850879 1.52001,-1.335794 0.69924,-0.693449 1.43074,-1.358217 2.03948,-2.135891 0.52392,-0.59526 1.052,-1.186045 1.63788,-1.721731 0.3915,-0.392361 -0.0396,0.03176 0.36263,-0.339987 0.20049,-0.185296 0.36906,-0.402511 0.57432,-0.583234 0.28752,-0.264446 0.53722,-0.55979 0.79381,-0.853604 0.2307,-0.245539 0.47663,-0.48685 0.6178,-0.797007 0.1438,-0.330372 0.23733,-0.682525 0.27516,-1.041115 0.0318,-0.324321 0.005,-0.648425 0.005,-0.973934 -0.0848,-2.156981 0.0432,-0.302942 -5.99418,0.05821 -0.045,0.0027 0.009,0.08986 0.0191,0.133842 0.0119,0.05312 0.0227,0.107466 0.0458,0.156742 0.0423,0.09012 0.11827,0.14442 0.18963,0.208587 1.47125,-0.0159 4.82265,0.616 6.81997,-0.376357 0.30684,-0.175728 0.57544,-0.394295 0.66331,-0.753506 0.0151,-0.10381 0.10481,-0.60741 -0.0127,-0.610876 -6.10228,-0.179948 -5.06543,-1.469361 -6.1319,0.599943 -0.13341,0.269941 -0.23461,0.581623 -0.47638,0.774076 -0.181,0.168232 -0.45376,0.47286 -0.72195,0.459504 -0.0472,-0.0024 -0.0921,-0.0217 -0.13808,-0.03256 1.92796,0.02863 3.85713,0.01199 5.7839,0.08588 0.0636,0.0024 -0.0646,0.209521 -0.10537,0.107876 -0.0605,-0.150866 0.0108,-0.339569 -0.009,-0.49393 0.0147,-0.405413 0.0792,-0.807381 0.0714,-1.213384 -0.0101,-0.325202 -0.0848,-0.629039 -0.29245,-0.888421 -0.0448,-0.0529 -0.16668,-0.202628 -0.22327,-0.246679 -0.14151,-0.110167 -0.35517,-0.118258 -0.46751,-0.276484 -0.25377,-0.256151 -0.47098,-0.553548 -0.78166,-0.745609 -0.0802,-0.07132 -0.19159,-0.177411 -0.28541,-0.23382 -1.84224,-1.107628 -6.91865,5.514776 -6.43459,-0.02376 -0.4929,0.09553 -0.98491,0.192889 -1.47102,0.319884 -0.6891,0.156057 -1.37963,0.344977 -2.09075,0.353878 1.7888,-0.03032 3.57762,-0.05872 5.36638,-0.09097 0.10186,-0.0019 -0.20376,-0.0019 -0.30562,-2.65e-4 -2.0062,0.03241 -4.01238,0.06628 -6.01851,0.102447 -0.30663,0.0055 -0.61335,0.02653 -0.91863,0.05452 -0.58721,0.07637 -1.15941,0.216654 -1.72308,0.398476 -0.0531,0.01638 -0.46897,0.134797 -0.52199,0.187844 -0.21171,0.211812 -0.22164,0.488637 -0.14097,0.763047 0.0217,0.07386 0.33986,0.154782 0.34965,0.157973 0.36749,0.08066 0.73631,0.149653 1.10496,0.224133 0.22705,0.04587 0.44838,0.118917 0.67664,0.158322 0.0829,0.01431 0.16779,0.01315 0.25169,0.01971 0.42906,0.04493 0.86095,0.01886 1.29192,0.02664 0.48646,-0.0033 0.97294,-0.0028 1.45939,-0.008 0.76299,-0.0057 1.52601,-0.01098 2.28903,-0.0062 0.77547,-0.0011 1.55122,-2.65e-4 2.32611,0.03391 0.44491,0.02373 0.88877,0.05044 1.33179,0.09942 0.18193,0.02011 0.48916,0.05518 0.67773,0.104867 0.068,0.01791 0.13207,0.0484 0.19811,0.0726 0,0 5.83377,-0.919154 5.83377,-0.919154 z" /><path
         style="fill:#000000;stroke-width:0.264583;filter:url(#filter664)"
         id="path422"
         d="m 125.72127,60.836795 c 0.30729,-0.773785 0.71852,-1.502556 1.12576,-2.227205 0.45442,-0.773726 0.9824,-1.500539 1.55558,-2.189805 0.39266,-0.500332 0.78156,-0.940051 1.32633,-1.273059 0.4648,-0.169669 0.95398,-0.233505 1.44103,-0.305059 1.08534,-0.17182 2.17979,-0.266113 3.27643,-0.324268 0.37026,-0.01733 0.74086,-0.02564 1.11148,-0.02946 0.10494,-0.0011 0.41973,-0.0041 0.31481,-0.0021 -5.21137,0.09549 -7.22261,0.105772 -5.13422,0.09397 2.40126,-0.01617 4.79839,-0.07331 7.20133,-0.133278 0.24385,-0.0061 0.48574,-0.04521 0.72873,-0.06655 0.64856,-0.05532 1.29972,-0.0645 1.95023,-0.07034 -9.65113,0.460481 -6.76404,-0.09089 -4.8023,0.143158 0.23344,0.02785 0.46517,0.073 0.69737,0.109424 0.0567,0.01146 0.25732,0.05379 0.32716,0.06164 0.0971,0.01093 0.18044,-0.0062 0.26304,0.05295 0.0845,0.188288 0.007,0.217276 -0.14339,0.32593 -0.0713,0.05167 -0.14211,0.103986 -0.21316,0.15598 -0.4725,0.377502 -1.01456,0.656651 -1.59061,0.836506 -0.27015,0.05951 -0.095,0.0049 -0.33633,0.119632 -0.23059,0.109651 -0.28398,0.145592 -0.40162,0.377399 -0.0639,0.157961 -0.0822,0.326115 -0.0948,0.49426 0,0 5.93887,-0.03049 5.93887,-0.03049 v 0 c 0.01,-0.06095 0.0133,-0.126212 0.0843,-0.14083 0.22012,-0.03003 0.4245,-0.138972 0.6254,-0.226245 0.53862,-0.290565 1.04432,-0.631537 1.52722,-1.007737 0.0972,-0.0842 0.20411,-0.158298 0.29151,-0.252603 0.25294,-0.272926 0.30536,-0.620588 0.22737,-0.972749 -0.0568,-0.223615 -0.14447,-0.461867 -0.35738,-0.587398 -0.0995,-0.05864 -0.26933,-0.08151 -0.37672,-0.102701 -2.41814,-0.528873 -4.9742,-0.218025 -7.39902,-0.16079 -0.64052,0.0191 -1.28102,0.04973 -1.9188,0.113967 -1.9528,0.16833 -4.56019,0.127325 4.55859,-0.02991 0.13092,-0.0024 -0.26188,-5.29e-4 -0.39281,-0.0013 -0.1222,-7.94e-4 -0.2444,-0.0024 -0.36659,-0.0038 -0.1048,-0.0013 -0.2096,-0.0027 -0.3144,-0.004 -2.5389,0.01064 -5.08382,-0.01122 -7.6168,0.178509 -1.10417,0.09528 -2.20475,0.227248 -3.30413,0.366626 -0.57995,0.08896 -1.17848,0.173027 -1.63192,0.578477 -0.4504,0.421724 -0.79493,0.93717 -1.17037,1.42386 -0.28164,0.369774 -0.5822,0.732555 -0.84575,1.115444 -0.21588,0.313634 -0.24111,0.399349 -0.4153,0.734237 -0.075,0.144235 -0.15167,0.287607 -0.22751,0.431414 -0.43607,0.761648 -0.91245,1.501441 -1.40085,2.2303 0,0 5.88226,0.198226 5.88226,0.198226 z" /><path
         style="fill:#000000;stroke-width:0.264583;filter:url(#filter552)"
         id="path424"
         d="m 75.718417,65.696812 c -0.550868,-0.15915 -1.093531,-0.348903 -1.608569,-0.601525 -0.402669,-0.213381 -0.813221,-0.412435 -1.197546,-0.658175 -0.244827,-0.18129 -0.474835,-0.385175 -0.678823,-0.611632 -0.121259,-0.120599 -0.197186,-0.274695 -0.229966,-0.442177 0.03562,0.0365 0.02926,0.105757 0.07025,0.136285 0.07953,0.05923 0.710782,-0.309936 0.770642,-0.342451 0.609962,-0.295452 1.231122,-0.562988 1.860266,-0.814631 0.567092,-0.212733 1.133113,-0.426889 1.704766,-0.62757 0.290862,-0.126071 0.603946,-0.197535 0.89833,-0.312621 0.300701,-0.117555 0.588909,-0.286684 0.872897,-0.438148 0.421092,-0.19872 0.819833,-0.44759 1.251802,-0.62371 0.237535,-0.09685 0.30339,-0.103923 0.548505,-0.16447 0.42554,-0.115985 0.869138,-0.0632 1.299747,-0.122534 0.07004,-0.0052 0.140026,-0.0114 0.210132,-0.01572 0.17136,-0.01058 0.343723,-0.0056 0.514564,-0.02257 0.381522,-0.03802 0.76244,-0.13793 1.138434,-0.209103 0.892188,-0.173514 1.781865,-0.35837 2.677877,-0.511447 0.238276,-0.03593 0.36862,-0.0591 0.60275,-0.08194 0.08242,-0.008 0.330536,-0.02006 0.247745,-0.01836 -9.845855,0.199183 -7.016202,0.0548 -5.070181,0.132093 0.143592,0.0055 0.263514,0.03804 0.384394,0.111445 0.01318,0.008 0.0303,0.01201 0.03912,0.02466 0.0036,0.0051 -0.0088,0.0091 -0.01177,0.01453 -0.01818,0.03313 -0.0344,0.06729 -0.0516,0.100936 -0.274331,0.373943 -0.635217,0.678198 -1.02222,0.929769 -0.423871,0.225309 -0.864833,0.406289 -1.330331,0.523314 -0.0646,0.0122 -0.131291,0.01625 -0.19381,0.0366 -0.07604,0.02474 -0.146153,0.06493 -0.219067,0.09776 -0.08801,0.03963 -0.179691,0.07208 -0.263691,0.119618 -0.365676,0.206944 -0.739479,0.498885 -1.078429,0.747652 -0.126563,0.104931 -0.253439,0.209484 -0.379687,0.314791 -0.295855,0.246784 -0.449041,0.371168 -0.729944,0.633973 -0.313422,0.293232 -0.601612,0.610542 -0.896154,0.922277 -0.407223,0.411633 -0.746937,0.885465 -1.087541,1.352735 -0.267938,0.288062 -0.464309,0.649975 -0.764132,0.907058 -0.08498,0.01445 -0.145092,0.08192 -0.222803,0.110992 -0.103666,0.03879 -0.191339,0.02567 -0.300509,0.03129 -0.344082,0.0177 -0.06134,0.02336 -0.456633,-5.3e-4 1.807776,-0.03592 3.615563,-0.07127 5.423326,-0.107762 0.09503,-0.0019 -0.190082,0.0056 -0.285121,0.004 -0.328274,-0.0052 -0.651446,-0.05059 -0.967242,-0.137533 -0.264221,-0.130119 -0.638604,-0.180819 -0.83244,-0.421193 -0.135948,-0.264051 -0.07622,-0.393268 0.02439,-0.650599 0.268534,-0.516102 0.683112,-0.901909 1.135126,-1.255046 0.09812,-0.07111 0.193289,-0.146471 0.294355,-0.21332 0.06972,-0.04612 0.54448,-0.322736 0.610745,-0.362527 0.344559,-0.206918 0.690171,-0.404387 1.044215,-0.594892 0.693124,-0.336018 1.36025,-0.718206 2.026219,-1.104156 0.500489,-0.272736 0.93272,-0.654191 1.440429,-0.912162 0.229452,-0.09168 0.434991,-0.231794 0.655235,-0.341178 0.181891,-0.09034 0.378016,-0.148719 0.568029,-0.21886 0.328017,-0.08389 0.665842,-0.09005 1.002085,-0.0865 2.039364,0.0141 0.241118,1.33e-4 -5.368697,0.09981 -0.07691,0.0013 0.153834,-0.0024 0.230746,-0.0039 0.272227,-0.0053 0.527698,0.01572 0.798319,0.04572 0.58475,0.07962 1.150279,0.253942 1.723784,0.387498 0.684276,0.14577 1.362131,0.316008 2.035284,0.506209 0.703294,0.205057 1.393946,0.449136 2.095852,0.658844 0.580903,0.17652 1.168,0.331346 1.754653,0.487326 0.392223,0.08708 0.790339,0.157416 1.149419,0.34404 0.382447,0.184139 0.722151,0.460105 1.030314,0.750176 0.320336,0.315597 0.656124,0.61496 0.99052,0.915493 0.33102,0.299413 0.657908,0.603591 0.970688,0.922072 0.34663,0.372275 0.662392,0.771589 0.975383,1.172065 0.200438,0.251341 0.393753,0.506428 0.563812,0.779272 0.163882,0.252936 0.342365,0.496625 0.460824,0.775105 0.03347,0.131619 0.109861,0.31088 0.05809,0.446029 -0.01934,-0.07437 -0.0295,-0.151746 -0.05802,-0.223099 -0.01969,-0.04927 -0.137946,-0.132414 -0.08494,-0.134602 1.891155,-0.032 3.782312,-0.064 5.673466,-0.09601 -0.0761,-0.0061 -0.15266,-0.008 -0.228298,-0.01839 -0.04228,-0.0058 -0.382636,-0.0759 -0.43319,-0.08621 -0.385381,-0.09568 -0.744399,-0.267877 -1.116033,-0.402958 -0.240311,-0.08735 -0.356444,-0.118274 -0.602994,-0.192267 -0.522478,-0.189042 -1.055018,-0.319768 -1.606756,-0.379921 -0.553934,-0.04823 -1.110062,-0.04624 -1.66551,-0.04686 -0.623242,0.0032 -1.245044,0.01521 -1.866577,-0.03674 -0.62507,-0.066 -1.238356,-0.202644 -1.84872,-0.347966 -0.676087,-0.176761 -1.349317,-0.36267 -2.03122,-0.516142 -0.754618,-0.179906 -1.518417,-0.295137 -2.287045,-0.393364 -0.814533,-0.07045 -1.620136,-0.18914 -2.416484,-0.373562 -0.580668,-0.139957 -1.123826,-0.391075 -1.625068,-0.711936 -0.209704,-0.144534 -0.566344,-0.381518 -0.561211,-0.677579 5.29e-4,-0.02874 0.01651,-0.05508 0.02474,-0.08262 0.02363,-0.01445 0.04416,-0.03611 0.0709,-0.0433 0.03953,-0.01064 0.08173,-0.0049 0.122487,-0.0087 0.05578,-0.0052 0.111238,-0.01365 0.167071,-0.01826 0.24815,-0.02053 0.497506,-0.03333 0.746125,-0.04655 0.673811,-1.37e-4 1.334288,-0.132675 1.998702,-0.226327 0.927137,-0.152479 1.866201,-0.193506 2.803713,-0.22161 0.832712,-2.14e-4 1.663763,-0.0506 2.495775,-0.07772 -1.804649,0.03452 -3.60934,0.06693 -5.413947,0.103564 -0.07979,0.0016 0.159618,5.29e-4 0.239422,0.0016 0.07603,0.0011 0.152098,0.0013 0.22807,0.0044 0.224928,0.0093 0.411023,0.04243 0.623351,0.114538 0.541274,0.192989 0.771477,0.595791 1.002808,1.092739 0.164817,0.41737 0.310441,0.844976 0.383526,1.288474 0.05324,0.321323 0.09407,0.661926 -0.0026,0.978524 -0.09039,0.125309 -0.116364,0.280146 -0.178912,0.417634 -0.01437,0.03158 -0.03595,0.05934 -0.05392,0.08902 -0.01744,0.04028 -0.03485,0.08055 -0.05227,0.12083 -0.08946,0.238659 -0.09572,0.497818 -0.110328,0.749196 -0.01506,0.259186 -0.0304,0.340654 0.03643,0.605833 0.02847,0.112985 0.07739,0.21981 0.11608,0.329713 0.207331,0.520221 0.552519,0.881139 1.027907,1.159682 2.038347,0.797084 0.32721,0.155546 6.168088,-0.02911 0.04649,-0.0016 0.263938,-0.163918 0.294592,-0.1977 0.0864,-0.09522 0.145159,-0.212267 0.218514,-0.317862 0.159687,-0.32603 0.332709,-0.64739 0.462989,-0.986642 0.189519,-0.388604 0.17357,-0.576329 0.03236,-0.987171 -0.07339,-0.103825 -0.132543,-0.21935 -0.220167,-0.311481 C 94.897253,66.86096 94.465463,66.562211 94.233119,66.406353 93.6438,66.011031 93.021508,65.668234 92.40768,65.313272 91.354961,64.687556 90.316731,64.036747 89.343503,63.292443 89.049776,63.051481 88.734533,62.8116 88.553897,62.467366 c -0.06771,-0.129032 -0.0891,-0.232725 -0.127805,-0.371062 -0.01579,-0.155229 -0.08603,-0.5675 -0.01119,-0.707874 0.007,-0.01315 0.02402,-0.01767 0.03605,-0.02652 0.113393,0.05531 -0.03458,-0.0249 0.105834,0.09527 0.04807,0.04114 0.21781,0.108472 0.154556,0.110218 -6.12336,0.168934 -7.615169,0.55069 -5.639049,0.0578 0.271148,0.08599 0.458814,0.21351 0.58941,0.466225 0.180827,0.422928 0.214368,0.890651 0.244626,1.344533 -0.0063,0.640511 -0.06047,1.279459 -0.117343,1.91716 -0.06913,0.587264 -0.120076,1.177189 -0.205859,1.7623 -0.06314,0.192299 -0.11975,0.560485 -0.291616,0.697513 -0.02291,0.01826 -0.05456,0.02135 -0.08183,0.03204 -0.03042,0.0053 -0.06039,0.01664 -0.09126,0.01595 -0.08434,-0.0019 -0.166598,-0.02673 -0.249928,-0.03988 -0.05749,-0.0091 -0.230164,-0.02867 -0.171982,-0.03013 5.079301,-0.127283 7.488875,-0.042 5.386091,-0.113138 -0.396822,-0.02687 -0.781717,-0.132369 -1.176986,-0.174067 -0.344358,-0.04996 -0.688612,-0.111197 -1.018479,-0.223285 -0.496504,-0.226732 -0.875337,-0.621006 -1.241189,-1.013838 -0.248333,-0.286824 -0.517721,-0.588288 -0.61155,-0.965647 0.0028,-0.01767 -0.0029,-0.03918 0.0084,-0.05306 0.0084,-0.01035 0.02641,-0.0039 0.03961,-0.0058 0.02527,-0.03063 0.05225,-0.05992 0.07581,-0.09188 0.0992,-0.134633 0.179599,-0.28267 0.28127,-0.415452 0.05303,-0.06925 0.115665,-0.130587 0.173498,-0.195881 0.177887,-0.226806 0.435322,-0.384353 0.60956,-0.613752 0.07625,-0.100385 0.171564,-0.289734 0.228031,-0.3948 0.198835,-0.244073 0.492051,-0.8807 0.834753,-0.929344 0.05422,-0.0077 0.107447,0.02127 0.161174,0.03189 -1.894721,0.06275 -3.788963,0.142174 -5.684163,0.188262 -0.06861,0.0016 0.142766,-0.07894 0.201313,-0.04313 0.117753,0.07202 0.09822,0.289668 0.101513,0.397589 0.0098,0.7605 -0.257553,1.479883 -0.574881,2.158534 -0.285772,0.537488 -0.618998,1.077704 -1.077318,1.488091 -0.06943,0.06217 -0.147685,0.113734 -0.221527,0.170601 -0.148558,0.07849 -0.231283,0.144793 -0.401064,0.155477 -0.05842,0.0037 -0.232756,-0.02003 -0.174246,-0.02191 1.882571,-0.06014 3.765539,-0.107516 5.64852,-0.152963 0.04901,-0.0011 -0.09672,0.02259 -0.145676,0.02013 -0.04255,-0.0021 -0.08221,-0.02244 -0.12331,-0.03366 -0.03854,-0.02188 -0.08262,-0.03602 -0.115612,-0.0656 -0.274325,-0.245986 -0.347387,-0.671605 -0.413409,-1.014622 -0.03464,-0.302918 -0.0958,-0.623829 0.01598,-0.91713 0.21173,-0.295939 0.438661,-0.587478 0.701858,-0.839687 0.178435,-0.180589 0.392972,-0.348263 0.531193,-0.565177 0.04313,-0.06768 0.07265,-0.143213 0.112702,-0.212762 0.04165,-0.07232 0.08816,-0.141716 0.132236,-0.212574 0.215482,-0.364186 0.414094,-0.741471 0.667295,-1.081212 0,0 -5.8489,-0.237524 -5.8489,-0.237524 v 0 c -0.193432,0.363707 -0.38291,0.733105 -0.632293,1.062474 -0.239282,0.322781 -0.526738,0.602626 -0.793049,0.902946 -0.289658,0.35125 -0.62742,0.68865 -0.765183,1.133295 -0.0709,0.39057 -0.03311,0.78816 0.04461,1.176023 0.07493,0.352819 0.179977,0.689716 0.300551,1.029602 0.03203,0.09028 0.05996,0.182277 0.0986,0.269933 0.03339,0.07574 0.07796,0.14605 0.116948,0.219075 0.02373,0.0263 0.276786,0.316259 0.31414,0.3165 3.097633,0.01995 4.843367,1.129745 6.511227,-0.556172 0.48352,-0.574914 0.925766,-1.197129 1.217435,-1.892917 0.162954,-0.418838 0.301418,-0.841261 0.434152,-1.270698 0.04023,-0.130152 0.208076,-0.681808 0.242295,-0.83139 0.02302,-0.100618 0.03322,-0.203742 0.04983,-0.305615 -0.004,-0.145703 -0.0057,-0.360471 -0.02895,-0.502015 -0.407456,-2.476392 -5.223947,-0.698992 -6.291003,-0.543399 -0.371322,0.377032 -0.63771,0.837319 -0.964126,1.251773 -0.273021,0.320546 -0.567021,0.623589 -0.818359,0.962507 -0.180062,0.242646 -0.155657,0.213542 -0.342069,0.449741 -0.204245,0.2588 -0.400661,0.50273 -0.330666,0.854369 0.123426,0.48364 0.411501,0.869511 0.737672,1.239956 0.193376,0.224568 0.381807,0.459981 0.588883,0.672156 0.147637,0.151275 0.257058,0.232693 0.416054,0.369456 0.068,0.05849 0.134909,0.118242 0.202364,0.177363 0.1514,0.117827 0.311306,0.243205 0.497869,0.303044 0.168582,0.05407 0.360048,0.04271 0.522534,0.123489 0.398444,0.079 0.812898,0.0687 1.202767,0.199252 2.166445,0.37615 0.405352,0.08356 6.200087,-0.04803 0.06844,-0.0016 0.13377,-0.03135 0.197442,-0.05648 0.179256,-0.07076 0.302469,-0.185235 0.402156,-0.347882 0.175292,-0.338775 0.26442,-0.696264 0.286377,-1.078412 0.05609,-0.59063 0.09891,-1.182257 0.138198,-1.774135 0.07122,-0.658177 0.158051,-1.315408 0.144571,-1.979612 0.02151,-0.525357 -0.01492,-1.046038 -0.146908,-1.557351 -0.128823,-0.421352 -0.247631,-0.64616 -0.606753,-0.916675 -1.424704,-1.648254 -0.130797,-0.225738 -6.096849,-0.08784 -0.04387,0.0011 -0.06993,0.05329 -0.101833,0.08341 -0.119155,0.112517 -0.179154,0.252283 -0.209891,0.412039 -0.04697,0.355687 0.0073,0.712017 0.07702,1.06195 0.178663,0.736669 0.483542,1.160812 1.126247,1.582346 0.4709,0.315825 0.934881,0.645977 1.417814,0.943313 0.608989,0.374947 1.244817,0.706613 1.842003,1.101305 0.855342,0.52624 1.750251,1.024101 2.477902,1.725512 0.01601,0.03528 0.03641,0.06889 0.04806,0.105844 0.04746,0.150603 -0.09621,0.312353 -0.120513,0.453641 -0.105804,0.274778 -0.221554,0.562396 -0.445537,0.762492 -0.121849,0.08657 -0.172802,0.09894 -0.324826,0.09715 -0.04386,-5.29e-4 -0.174879,-0.01159 -0.131019,-0.01228 5.765622,-0.09017 7.466912,-0.487288 5.459481,-0.03388 -0.06064,2.6e-5 -0.121909,0.0087 -0.181935,7.9e-5 -0.264613,-0.03813 -0.56373,-0.218752 -0.729295,-0.425897 -0.05158,-0.06453 -0.08739,-0.140205 -0.131086,-0.210309 -0.03374,-0.06528 -0.07745,-0.126312 -0.101232,-0.195847 -0.115961,-0.339101 5.29e-4,-0.710801 0.171837,-1.005049 0.124277,-0.247346 0.22757,-0.513377 0.28186,-0.784987 0.03494,-0.399696 0.02011,-0.798227 -0.03753,-1.195647 -0.05243,-0.222824 -0.100248,-0.452697 -0.173434,-0.669777 -0.08638,-0.256209 -0.205058,-0.503076 -0.29118,-0.759613 -0.09605,-0.194414 -0.196143,-0.386824 -0.291076,-0.581785 -0.05136,-0.105484 -0.09153,-0.216633 -0.149386,-0.318696 -0.133398,-0.235315 -0.313441,-0.455464 -0.544719,-0.597868 -0.433649,-0.248894 -0.664485,-0.368125 -1.181521,-0.360566 -2.000988,0.02924 -4.001804,0.06919 -6.002707,0.10378 -0.793597,0.04283 -1.587551,0.06732 -2.381885,0.09152 -0.95984,0.04675 -1.916526,0.127561 -2.867425,0.26975 -0.289335,0.03968 -0.516559,0.07446 -0.807519,0.09994 -0.426511,0.03735 -0.856382,0.04065 -1.280774,0.101129 -0.603739,0.106003 -1.087212,0.230555 -1.235593,0.902436 -0.0026,0.08209 -0.0141,0.164369 -0.008,0.246274 0.03413,0.455808 0.32194,0.849789 0.649851,1.145225 0.04523,0.0304 0.436742,0.294082 0.472152,0.315529 0.298172,0.180594 0.265988,0.141102 0.588195,0.29156 0.527666,0.246393 0.118493,0.08355 0.666467,0.283625 0.577757,0.161179 0.176085,0.05996 0.792437,0.185643 0.12763,0.02603 0.713232,0.155337 0.848101,0.175561 0.267814,0.04016 0.541097,0.03609 0.807752,0.08698 0.766135,0.07761 1.529376,0.168717 2.280449,0.343998 0.668988,0.121025 1.321104,0.312404 1.97359,0.501695 0.293513,0.07448 0.584753,0.161316 0.880113,0.228198 0.352822,0.07989 0.291499,0.05503 0.652301,0.120271 0.111866,0.02021 0.223128,0.04365 0.334693,0.06547 0.613156,0.100304 1.226928,0.139938 1.848466,0.112263 0.550442,-0.0016 1.101016,-0.0046 1.65137,0.0064 0.547439,0.0182 1.090835,0.06371 1.613665,0.242303 0.381802,0.126273 0.778619,0.21472 1.150729,0.369361 0.09047,0.0376 0.177003,0.08408 0.265951,0.125164 0.07784,0.03595 0.15626,0.07064 0.234392,0.105952 0.387797,0.169302 0.04615,0.03427 0.438597,0.151104 0.06697,0.01995 0.128164,0.0686 0.198043,0.06876 2.000239,0.0044 4.001378,0.01252 6.000486,-0.05497 0.0686,-0.0024 0.10947,-0.09012 0.13863,-0.152249 0.0454,-0.09666 0.0524,-0.207034 0.0786,-0.31055 0.007,-0.248001 -0.0203,-0.495702 -0.10072,-0.731787 -0.12132,-0.314574 -0.30473,-0.590412 -0.48283,-0.874829 -0.08168,-0.133691 -0.148868,-0.275783 -0.241319,-0.402727 -0.09368,-0.12863 -0.136384,-0.164314 -0.243255,-0.284634 -0.04707,-0.05299 -0.09303,-0.106947 -0.139546,-0.160422 -0.33283,-0.402119 -0.669857,-0.800698 -1.004978,-1.20087 -0.291087,-0.354917 -0.601927,-0.685858 -0.939766,-0.996632 -0.33965,-0.287803 -0.674195,-0.578133 -0.997561,-0.884198 -0.325583,-0.323752 -0.657286,-0.624088 -1.01193,-0.915712 -0.22841,-0.125651 -0.110972,-0.05782 -0.351589,-0.204732 -0.271333,-0.150088 -0.570582,-0.234987 -0.87412,-0.291399 -0.617315,-0.109035 -1.222894,-0.279617 -1.82889,-0.43747 -0.706102,-0.199284 -1.405453,-0.419521 -2.098683,-0.660191 -0.664252,-0.193871 -1.32412,-0.402418 -2.002843,-0.541753 -0.203388,-0.04654 -0.409104,-0.08286 -0.611645,-0.132956 -0.366173,-0.09056 -0.720614,-0.228478 -1.091427,-0.302328 -0.670248,-0.130641 0.122009,0.02032 -0.525907,-0.09263 -0.08438,-0.01471 -0.167135,-0.03968 -0.252326,-0.04857 -0.07516,-0.0079 -0.151148,-0.0027 -0.226711,-0.0013 -5.948007,0.09835 -4.007093,-0.01447 -6.209268,0.116895 -0.351536,0.0422 -0.695266,0.124497 -1.013438,0.285234 -0.406392,0.189892 -0.789858,0.428464 -1.180714,0.647502 -0.453316,0.310343 -0.90333,0.625787 -1.370656,0.915003 -0.646641,0.386435 -1.321575,0.720445 -1.977813,1.089975 -0.688581,0.380767 -1.389091,0.756367 -1.987576,1.273358 -0.224179,0.189724 -0.379058,0.309096 -0.578811,0.522957 -0.277315,0.296904 -0.479202,0.656283 -0.681053,1.005548 -0.0379,0.08409 -0.08423,0.164876 -0.113699,0.252281 -0.100137,0.297037 -0.04676,0.629049 0.04416,0.919062 0.04704,0.115284 0.105931,0.279349 0.181679,0.378912 0.188664,0.247976 0.506563,0.327284 0.768323,0.46472 0.06983,0.03172 0.412454,0.190171 0.484841,0.211669 0.08299,0.02466 0.170432,0.03052 0.255646,0.04581 2.163786,0.388077 4.50292,-0.09998 6.59814,-0.03616 0.506973,-0.08525 0.80097,-0.174167 1.126712,-0.5896 0.219271,-0.323091 0.441727,-0.643993 0.677481,-0.955386 0.333357,-0.431385 0.627237,-0.891792 0.991669,-1.298406 0.588013,-0.648277 1.21343,-1.264965 1.949011,-1.747184 0.292119,-0.18529 0.465775,-0.310235 0.782079,-0.452361 0.365117,-0.164057 0.754817,-0.240347 1.129491,-0.371578 0.467307,-0.193061 0.932656,-0.404305 1.33433,-0.716449 0.420315,-0.363347 0.813517,-0.764985 1.073089,-1.262454 0.02641,-0.08596 0.06426,-0.169209 0.07922,-0.257885 0.07815,-0.463243 -0.146338,-0.770659 -0.529764,-0.995703 -0.169058,-0.05882 -0.291796,-0.118042 -0.475938,-0.115496 -2.536193,0.03507 -4.528452,-0.236024 -6.769544,0.271269 -0.864516,0.182213 -1.72906,0.367025 -2.60177,0.506283 -0.372806,0.05232 -0.545872,0.0836 -0.910915,0.110035 -0.383324,0.02776 -0.76912,0.02693 -1.151467,0.07117 -0.427559,0.01984 -0.846008,0.109228 -1.245973,0.263626 -0.598639,0.251854 -1.152372,0.59101 -1.740006,0.86633 -0.586407,0.250603 -1.185955,0.466884 -1.784006,0.687981 -0.592016,0.209928 -1.192094,0.40196 -1.766014,0.658712 -0.600814,0.274531 -1.19126,0.570349 -1.790293,0.848688 -0.120568,0.05218 -0.24093,0.104846 -0.361709,0.156546 -0.1973,0.08445 -0.532469,0.174357 -0.636995,0.395541 -0.06797,0.143825 -0.05945,0.251143 -0.06675,0.40232 0.01667,0.09806 0.02222,0.159851 0.05641,0.252736 0.01124,0.03052 0.03113,0.05737 0.04241,0.08788 0.0526,0.142174 0.07439,0.296227 0.178739,0.414829 0.221777,0.270661 0.471742,0.51148 0.740913,0.735722 0.125296,0.107169 0.198268,0.17662 0.336926,0.267017 0.297651,0.194051 0.633354,0.32234 0.952576,0.474369 0.0833,0.04619 0.488786,0.272264 0.57372,0.314399 0.288266,0.143002 0.597906,0.235577 0.885785,0.37946 0,0 5.878272,-0.809865 5.878272,-0.809865 z" /></g><g
       id="g355"
       transform="translate(7.3640878,-12.808141)"><g
         id="g343"><path
           id="path240"
           style="stroke-width:0.264583;filter:url(#filter306)"
           d="m 135.76248,120.07781 a 15.427556,15.427556 0 0 1 -15.42755,15.42756 15.427556,15.427556 0 0 1 -15.42756,-15.42756 15.427556,15.427556 0 0 1 15.42756,-15.42755 15.427556,15.427556 0 0 1 15.42755,15.42755 z" /><path
           id="path240-1"
           style="stroke-width:0.264583;filter:url(#filter294)"
           d="M 91.793964,119.56356 A 15.427556,15.427556 0 0 1 76.366408,134.99112 15.427556,15.427556 0 0 1 60.938852,119.56356 15.427556,15.427556 0 0 1 76.366408,104.136 15.427556,15.427556 0 0 1 91.793964,119.56356 Z" /></g><path
         style="fill:#000000;stroke-width:0.106772"
         d="m 84.527255,165.22769 c -1.75734,-0.3243 -2.8168,-0.84582 -3.99201,-1.96503 -1.41852,-1.35092 -2.24568,-2.89527 -2.9088,-5.43082 l -0.11685,-0.44678 -0.83503,0.61792 c -2.26597,1.67679 -5.04817,3.16248 -7.20434,3.84712 -1.77564,0.5638 -3.07721,0.74217 -5.43073,0.74424 -2.53662,0.002 -3.20765,-0.1177 -4.79899,-0.85766 -2.38745,-1.11014 -3.56213,-3.18284 -3.00427,-5.30094 0.3493,-1.3262 0.6089,-1.71202 2.25798,-3.35579 0.8503,-0.84756 1.72147,-1.75426 1.93595,-2.0149 0.51433,-0.62504 1.41473,-2.18303 1.87456,-3.24362 l 0.36864,-0.85027 -0.88667,-0.54488 c -4.41918,-2.7157 -7.57868,-5.63157 -10.164188,-9.38041 -1.437002,-2.08358 -2.85887,-5.25438 -3.550128,-7.91689 -0.846295,-3.25965 -1.186618,-8.05845 -0.863608,-12.17746 0.444044,-5.66242 2.328414,-12.02574 5.241374,-17.699572 4.42871,-8.626206 13.18757,-16.897886 22.63416,-21.375216 1.90394,-0.90239 5.7497,-2.52466 7.19652,-3.03572 0.87335,-0.3085 4.24754,-1.31745 4.70919,-1.40815 0.11908,-0.0234 -0.36673,-0.0766 -1.07958,-0.11815 -1.1648,-0.068 -2.63256,-0.23011 -8.3388,-0.92125 -0.95266,-0.11539 -2.89136,-0.32781 -4.30822,-0.47205 -2.92298,-0.29757 -4.2037,-0.51666 -6.13859,-1.0501 -1.81893,-0.50146 -2.64779,-0.8102 -4.05965,-1.51213 -2.10248,-1.0453 -2.73552,-1.89302 -2.19895,-2.94471 0.20544,-0.40268 0.40976,-0.58746 1.13962,-1.030594 2.56624,-1.558127 9.55447,-3.953204 13.77955,-4.722671 3.51363,-0.639898 7.12209,-0.626825 9.97442,0.03614 3.19885,0.743502 7.53531,2.888895 9.69003,4.793995 0.54554,0.48234 2.657046,2.73582 3.858116,4.11753 l 0.27399,0.3152 0.903129,-0.5968 c 2.40129,-1.58681 6.47162,-5.266719 7.30502,-6.604347 1.31812,-2.115607 3.77843,-4.412867 6.51788,-6.085916 3.57746,-2.18485 8.19378,-3.84817 12.22329,-4.404207 1.62881,-0.224762 4.69683,-0.170894 5.98089,0.10501 3.96994,0.853017 9.20186,4.009191 9.20186,5.551057 0,0.423064 -0.25554,0.862202 -0.5873,1.009241 -0.15332,0.06795 -0.27876,0.198871 -0.27876,0.290928 0,0.09206 -0.62118,0.792053 -1.38039,1.555545 -0.75921,0.763493 -1.76436,1.832648 -2.23367,2.375898 -1.85534,2.147699 -4.85545,5.282071 -5.77113,6.029401 -1.68801,1.37769 -3.7046,2.57182 -6.27054,3.71313 -2.30859,1.02684 -4.06248,1.58519 -6.61275,2.10517 l -1.10865,0.22604 2.48045,1.03707 c 4.78763,2.0017 7.95011,3.73131 11.42854,6.25044 2.43887,1.76627 3.5385,2.67506 5.50442,4.54912 4.43516,4.22791 7.41234,8.162146 9.75617,12.892426 2.47495,4.994842 4.0417,10.082672 4.78055,15.524192 0.26948,1.98458 0.27069,7.62389 0.002,9.7119 -0.37816,2.93987 -0.8661,4.84758 -1.88542,7.37153 -1.16983,2.89665 -2.7681,5.35763 -5.25999,8.09924 -1.58108,1.73953 -4.35261,3.96116 -6.94805,5.56948 -0.90163,0.55872 -1.18229,0.78517 -1.15567,0.93247 0.0589,0.32597 1.26969,2.68001 1.73826,3.37962 0.24228,0.36173 1.21638,1.43262 2.16468,2.37973 0.94832,0.94711 1.8294,1.92262 1.95799,2.1678 0.30116,0.57423 0.65347,1.91561 0.65347,2.48798 0,1.17735 -0.85611,2.68916 -1.99753,3.52746 -0.71428,0.52459 -1.9443,1.07049 -2.9823,1.32359 -0.66139,0.16126 -1.21339,0.19762 -2.97707,0.19607 -2.41005,-0.002 -3.70012,-0.18628 -5.6107,-0.80093 -1.93863,-0.62366 -5.04408,-2.29687 -7.02393,-3.78447 l -0.83459,-0.62709 -0.1142,0.44839 c -0.84933,3.33462 -2.50924,5.67465 -4.79363,6.75773 -1.08377,0.51385 -2.16156,0.72385 -3.76155,0.73295 -1.70416,0.01 -2.55369,-0.17834 -4.1679,-0.92246 -3.00179,-1.3838 -5.64843,-3.56097 -7.96243,-6.55005 -0.40737,-0.52622 -0.799879,-1.08317 -0.872249,-1.23768 l -0.13158,-0.28093 -0.17193,0.25195 c -1.18622,1.7383 -3.477846,4.16916 -5.223026,5.54035 -1.72422,1.35473 -3.99099,2.55156 -5.67799,2.99794 -0.91935,0.24326 -2.83415,0.29668 -3.85847,0.10765 z m 4.14953,-2.69138 c 2.70573,-1.07721 5.59537,-3.34589 7.569146,-5.94261 0.44025,-0.57919 1.05907,-1.32854 1.37516,-1.66522 0.31609,-0.33667 0.77121,-0.8936 1.01137,-1.23762 0.85545,-1.22538 1.2678,-1.24705 1.872389,-0.0984 0.22865,0.4344 0.69145,1.14457 1.02845,1.57816 0.33699,0.43361 0.7202,0.96792 0.85156,1.18736 0.41164,0.68766 1.51766,1.9324 2.50032,2.81394 1.78184,1.59849 3.41037,2.64984 5.20895,3.36284 0.82866,0.32848 1.06015,0.37281 2.14366,0.41043 2.66085,0.0924 4.1351,-0.67207 5.45258,-2.82742 0.63781,-1.04346 1.10465,-2.56942 1.554,-5.07958 0.14232,-0.79508 0.99978,-1.38934 1.70192,-1.17951 0.13915,0.0416 0.72086,0.53795 1.29271,1.10306 1.75126,1.7306 5.35788,3.88903 7.73724,4.63045 2.14192,0.66741 5.05314,0.92193 6.75917,0.59092 1.54541,-0.29984 2.70243,-0.94281 3.25137,-1.80682 0.38497,-0.60593 0.26224,-1.77886 -0.25291,-2.41718 -0.13901,-0.17223 -0.89973,-0.95289 -1.69051,-1.7348 -0.87207,-0.86229 -1.69395,-1.79456 -2.08886,-2.36942 -0.7807,-1.13644 -1.77911,-3.10631 -2.26127,-4.46146 l -0.35092,-0.9863 0.85695,-0.77272 c 0.47132,-0.425 0.89298,-0.77492 0.93703,-0.77761 0.11829,-0.007 1.51901,-0.88863 2.57221,-1.61861 3.8447,-2.6648 7.00363,-6.11821 8.8075,-9.62857 1.42434,-2.77177 2.22072,-5.48458 2.61975,-8.92411 0.23914,-2.06119 0.23608,-6.51217 -0.006,-8.7358 -0.50079,-4.60009 -2.03284,-9.76863 -4.31679,-14.56304 -0.94057,-1.974362 -1.59661,-3.106692 -2.94417,-5.081562 -4.14679,-6.077206 -10.15638,-11.484966 -16.98881,-15.287456 -2.64898,-1.47425 -8.04218,-3.75958 -10.92762,-4.63048 l -1.4137,-0.4267 -4.05965,-0.0174 -4.05964,-0.0174 -1.24496,-0.56208 c -1.88268,-0.84999 -2.97458,-1.17549 -4.089579,-1.2191 -1.12997,-0.0442 -6.957276,0.5555 -9.117796,0.93833 -3.76634,0.66736 -8.47773,2.29086 -13.5974,4.68556 -7.56776,3.53976 -14.74398,9.62699 -19.49549,16.537036 -3.43343,4.993172 -6.100708,11.891192 -7.064768,18.270592 -0.330995,2.19027 -0.479649,5.78401 -0.335077,8.10057 0.219063,3.51018 0.67979,5.85989 1.640195,8.36498 1.38726,3.61849 3.33706,6.46315 6.41136,9.35384 1.52666,1.43548 2.89308,2.46057 5.86404,4.3992 1.13129,0.7382 2.07062,1.35473 2.08741,1.37008 0.081,0.074 -0.91555,2.55557 -1.4539,3.62036 -0.92926,1.83799 -1.68183,2.83827 -3.43605,4.56707 -1.65231,1.62837 -1.83089,1.86417 -2.01411,2.65945 -0.33204,1.44128 1.04171,2.69917 3.46344,3.17135 1.9368,0.37762 5.29103,-0.0152 7.578,-0.88752 2.26676,-0.8646 5.3709,-2.81036 6.86401,-4.30255 1.05338,-1.05273 1.38454,-1.24885 1.93819,-1.14782 0.54917,0.10022 0.91356,0.54337 1.09492,1.33158 0.73692,3.20275 0.84907,3.58522 1.32075,4.50437 0.56895,1.1087 1.46711,2.11983 2.32888,2.6218 0.91406,0.53243 1.56804,0.66221 3.17899,0.63084 1.32865,-0.0259 1.45928,-0.0481 2.33631,-0.39724 z m -13.43267,-26.32576 c -2.61905,-0.23358 -5.36992,-1.15699 -7.52388,-2.52563 -3.877,-2.46345 -6.40684,-6.14408 -7.32528,-10.65746 -0.31574,-1.55162 -0.33668,-4.04879 -0.047,-5.6082 1.27399,-6.8586 6.6722,-12.05614 13.74321,-13.23235 1.11312,-0.18515 1.59831,-0.20991 3.15573,-0.16099 2.81293,0.0883 4.96085,0.63114 7.25286,1.83281 1.70003,0.89131 2.77261,1.70322 4.24669,3.21463 2.2372,2.29384 3.36841,4.34496 4.20003,7.61552 0.34548,1.35866 0.37655,1.6111 0.37597,3.05392 -0.002,4.8746 -1.72358,8.86668 -5.22675,12.11989 -2.68828,2.49647 -6.11021,3.98831 -9.98275,4.35215 -1.21181,0.11385 -1.54978,0.11334 -2.86881,-0.004 z m -4.56741,-4.3546 c 0.5587,-0.5896 0.69694,-1.08209 0.71211,-2.53693 0.0206,-1.97145 -0.19616,-2.2261 -1.99063,-2.3392 -1.21018,-0.0763 -1.647,0.009 -2.12039,0.41317 -0.41843,0.35738 -1.3438,1.48402 -1.3438,1.63608 0,0.11665 1.62215,1.64891 2.23281,2.10909 0.57729,0.43504 1.79171,1.16801 1.94837,1.17596 0.0668,0.003 0.31953,-0.20278 0.56153,-0.45817 z m 16.42157,-10.17097 c 1.76334,-0.2805 2.62782,-0.86258 3.35728,-2.2606 l 0.41499,-0.7953 -0.23941,-1.18032 c -0.13167,-0.64917 -0.3025,-1.2531 -0.37961,-1.34206 -0.0771,-0.089 -0.25199,-0.46977 -0.3886,-0.84625 -0.13661,-0.37647 -0.36392,-0.90802 -0.50514,-1.18121 -0.14121,-0.27319 -0.25675,-0.56134 -0.25675,-0.64034 0,-0.33896 -1.41787,-2.19334 -2.43432,-3.18377 -1.18607,-1.1557 -2.31408,-1.9467 -3.43975,-2.41209 l -0.72787,-0.30092 -1.26056,0.61001 c -2.17603,1.05301 -3.29877,2.34884 -3.61494,4.17222 -0.0833,0.48016 -0.11174,1.29537 -0.0766,2.19248 0.0919,2.34721 0.63774,3.8536 1.8626,5.14052 1.19686,1.2575 2.26124,1.81912 3.81659,2.01382 1.0306,0.12901 3.10146,0.1364 3.8721,0.0138 z m 7.43998,14.43187 c -0.42037,-0.25635 -0.60512,-0.66132 -0.5249,-1.1506 0.12421,-0.75762 0.63253,-1.01494 2.308686,-1.1687 1.30291,-0.11952 6.338029,-0.36203 7.002429,-0.33726 0.61409,0.0229 1.06735,0.32019 1.24615,0.81735 0.13456,0.37416 0.13066,0.46254 -0.0354,0.80302 -0.31379,0.64325 -0.58404,0.70607 -3.54719,0.82456 -2.482979,0.0993 -4.689999,0.24396 -5.662185,0.37116 -0.32295,0.0423 -0.52314,0.002 -0.78756,-0.15953 z m 24.012555,0.0969 c -3.989,-0.40088 -7.33436,-1.9538 -10.1872,-4.72892 -1.9421,-1.88918 -3.11114,-3.69045 -3.98987,-6.14765 -0.64763,-1.81097 -0.80983,-2.84495 -0.81257,-5.17991 -0.002,-1.80532 0.0328,-2.2641 0.24448,-3.21189 0.71376,-3.19584 2.20122,-5.90783 4.4547,-8.12198 1.42994,-1.40497 2.61908,-2.25791 4.27086,-3.06337 5.20027,-2.53579 10.90134,-2.36809 16.02956,0.4715 3.22437,1.7854 6.21373,5.41495 7.30802,8.87306 1.11497,3.52349 1.11164,6.66787 -0.0107,10.05479 -1.43897,4.34257 -4.99622,8.09438 -9.32875,9.83897 -2.49307,1.0039 -5.51006,1.46348 -7.97858,1.2154 z m -3.98086,-3.99369 c 1.02542,-0.63259 1.44975,-1.62227 1.35522,-3.16081 -0.10379,-1.68901 -1.17035,-2.75667 -2.91187,-2.91486 -1.03196,-0.0937 -1.53434,0.14922 -2.24055,1.08357 -0.86792,1.14829 -1.10853,1.40394 -1.38485,1.47141 -0.14261,0.0348 -0.25929,0.10707 -0.25929,0.16057 0,0.15801 1.6201,1.69358 2.37565,2.25169 0.73223,0.54088 2.24547,1.41928 2.44504,1.41928 0.0642,0 0.3435,-0.13988 0.62065,-0.31085 z m 13.2969,-11.99944 c 1.86622,-0.46509 2.79489,-1.05734 3.51306,-2.24041 0.84084,-1.38514 1.09237,-2.60258 0.89917,-4.35202 -0.20404,-1.84754 -0.79537,-3.03696 -2.20271,-4.43054 -0.94311,-0.9339 -1.71683,-1.3711 -2.98925,-1.68909 -0.69653,-0.17408 -1.18987,-0.16565 -3.12728,0.0534 -2.50884,0.28367 -4.12871,1.98348 -4.50791,4.73036 -0.26542,1.92275 0.0718,3.6179 1.12469,5.65348 0.41651,0.80525 1.05256,1.48176 1.70523,1.8137 0.19731,0.10034 1.89119,0.49447 2.54405,0.59194 0.79968,0.11939 2.29508,0.055 3.04095,-0.13083 z M 111.61852,73.769072 c 0.44656,-0.0651 1.0861,-0.18622 1.4212,-0.26923 0.33509,-0.083 1.4312,-0.26749 2.43578,-0.40996 4.17943,-0.59273 6.31977,-1.21885 9.7293,-2.84614 2.44976,-1.16922 4.05729,-2.2539 5.69057,-3.83973 1.37993,-1.339836 3.24641,-3.34331 4.81312,-5.166368 0.47286,-0.550233 1.36665,-1.508906 1.98621,-2.130385 0.96862,-0.971628 1.10681,-1.152989 0.98626,-1.294295 -0.24163,-0.283215 -2.05779,-1.418707 -3.02423,-1.890807 -1.09833,-0.536521 -2.43796,-1.008536 -3.63173,-1.279635 -1.16952,-0.265591 -4.29418,-0.266306 -5.79176,-0.0013 -3.51507,0.621953 -7.10331,1.941823 -10.34054,3.803582 -2.3259,1.337642 -4.86617,3.632424 -5.95217,5.376957 -0.6728,1.080778 -1.47371,1.938037 -3.71334,3.974571 l -1.11517,1.01405 1.87297,-0.88138 c 2.34942,-1.10558 4.26495,-1.89765 7.41183,-3.064751 4.08694,-1.51575 4.21712,-1.55022 4.78184,-1.266145 0.27767,0.139675 0.45447,0.383576 0.60239,0.831005 0.0777,0.235094 -0.16006,0.80323 -0.43426,1.037605 -0.11242,0.09609 -1.49536,0.647686 -3.07321,1.225776 -1.57785,0.57809 -3.59955,1.34342 -4.49267,1.70073 -2.04603,0.81854 -6.06142,2.72854 -6.51261,3.09785 -0.18761,0.15357 -0.63854,0.60555 -1.00206,1.00441 l -0.66094,0.72519 0.40706,0.24054 c 0.69116,0.40842 1.6756,0.51414 4.35845,0.46804 1.33968,-0.023 2.80115,-0.0951 3.24771,-0.16016 z m -20.271085,-3.00922 c -0.52095,-0.19955 -1.64141,-0.53065 -2.48992,-0.73578 -0.8485,-0.20513 -2.33398,-0.63383 -3.30107,-0.95266 -0.96709,-0.31884 -2.60943,-0.78761 -3.64966,-1.04171 -1.04022,-0.25411 -1.98806,-0.51238 -2.1063,-0.57393 -0.77425,-0.40308 -0.71259,-1.67895 0.0969,-2.005118 0.21158,-0.08525 0.53945,-0.110583 0.89823,-0.0694 0.79551,0.09132 4.373,1.043478 5.58226,1.485728 0.55645,0.20351 1.78008,0.55767 2.71918,0.78702 2.60504,0.63622 3.87379,1.09835 6.41654,2.33712 0.698696,0.34039 1.323426,0.61889 1.388296,0.61889 0.15438,0 -1.952006,-2.29779 -2.961326,-3.23043 -1.97601,-1.825871 -5.81709,-3.742713 -8.84506,-4.414016 -3.76381,-0.834438 -8.1982,-0.449609 -13.64041,1.183756 -2.42134,0.726715 -7.578,2.71729 -7.578,2.92526 0,0.0867 1.26019,0.68732 2.04501,0.97468 0.91936,0.33662 3.1931,0.92853 4.34216,1.13038 0.50611,0.0889 1.67528,0.23505 2.59818,0.32477 0.92289,0.0897 2.6523,0.2781 3.84313,0.41862 1.19083,0.14052 3.60226,0.42467 5.35873,0.63145 3.16954,0.37314 5.80301,0.54214 8.7147,0.55927 l 1.5156,0.009 -0.94718,-0.36282 z"
         id="path186" /></g><path
       style="fill:#000000;stroke-width:0.264583;filter:url(#filter762)"
       d="m 137.74552,43.981042 c -0.39371,-0.03281 -0.79003,-0.04256 -1.18114,-0.09843 -0.22453,-0.03208 -0.47111,-0.222655 -0.689,-0.295286 -0.28705,-0.09568 -2.766,0 -3.1497,0 -0.73433,0 -1.44354,-0.0047 -2.16542,0.09843 -0.41845,0.05978 -0.87555,-0.03625 -1.27957,0.09843 -0.32943,0.10981 -0.65025,0.282369 -0.98429,0.393713 -0.28035,0.09345 0.15829,-0.355142 -0.39371,0.196856 -0.28208,0.282083 -0.13518,0.270354 -0.29528,0.590571 -0.0627,0.125463 -0.25192,0.263602 -0.29529,0.393713 -0.16463,0.493887 0.57592,1.275903 0.98428,1.377995 0.41541,0.103849 1.95432,0.200419 2.36228,0.09843 1.27871,-0.319675 0.0232,-0.06083 0.49214,-0.295286 0.088,-0.04402 0.2039,0.03656 0.29529,0 0.63612,-0.254447 -0.0819,-0.173469 0.689,-0.39371 0.0946,-0.02704 0.19784,0.01392 0.29528,0 0.26784,-0.03826 0.52213,-0.143799 0.78743,-0.196858 0.18782,-0.03757 0.40509,0.04637 0.59057,0 0.0712,-0.01781 0.12394,-0.09033 0.19685,-0.09843 0.63081,-0.07009 1.33062,0 1.96857,0 0.27734,0 0.74521,0.137088 0.98428,0.196855 0.50361,0.125902 0.44125,0.393713 1.08271,0.393713 0.0662,0 0.2372,0.02905 0.29529,0 0.16875,-0.08437 0.0404,-0.190952 0.19685,-0.295282 0.24206,-0.161373 0.46152,-0.310161 0.689,-0.492144 0.24544,-0.196347 0.93584,-0.392176 0.689,-0.885854 -0.0565,-0.113027 -0.68227,-0.766395 -0.78743,-0.787427 -0.0965,-0.01931 -0.20481,0.03878 -0.29528,0 -0.30157,-0.129241 -0.50609,-0.421764 -0.78743,-0.590568 -0.14627,-0.08776 -0.43688,0.07684 -0.59057,0 -0.54853,-0.274264 -1.83802,-0.09843 -2.55913,-0.09843"
       id="path756" /><path
       style="fill:#000000;stroke-width:0.264583;filter:url(#filter770)"
       d="m 84.102108,53.430158 c -0.45933,0 -0.91866,0 -1.37799,0 -0.3732,0 -1.06709,-0.129667 -1.27957,0.295283 -0.0293,0.05869 0.0207,0.134606 0,0.196858 -0.18755,0.562636 -0.0188,-0.59503 -0.19686,0.295283 -0.0438,0.218736 0.0227,0.598074 0.0984,0.787426 0.0323,0.08085 0.6924,0.641482 0.78743,0.688999 0.0587,0.02935 0.1332,-0.0159 0.19686,0 0.18342,0.04586 0.33531,0.243009 0.49214,0.295285 0.0622,0.02074 0.13817,-0.02935 0.19686,0 0.0293,0.01469 -0.0293,0.08375 0,0.09843 0.22769,0.113845 0.8245,0 1.08271,0 0.0656,0 0.15045,0.0464 0.19685,0 0.0232,-0.0232 -0.0232,-0.07523 0,-0.09843 0.0232,-0.0232 0.0691,0.01469 0.0984,0 0.23843,-0.119213 1.2405,-0.796824 0.98428,-1.181139 -0.0407,-0.06104 -0.14498,-0.04655 -0.19685,-0.09843 -0.0543,-0.05431 -0.21216,-0.465878 -0.29529,-0.590571 -0.16535,-0.248031 -0.60568,-0.543605 -0.78742,-0.688996 z"
       id="path764" /></g></svg>
